<?xml version="1.0" standalone="no"?>
<!DOCTYPE svg PUBLIC "-//W3C//DTD SVG 1.1//EN" "http://www.w3.org/Graphics/SVG/1.1/DTD/svg11.dtd" >
<svg xmlns="http://www.w3.org/2000/svg">
<metadata></metadata>
<defs>
<font id="syncopatebold" horiz-adv-x="2116" >
<font-face units-per-em="2048" ascent="1638" descent="-410" />
<missing-glyph horiz-adv-x="770" />
<glyph horiz-adv-x="2048" />
<glyph horiz-adv-x="2048" />
<glyph unicode="&#xd;" horiz-adv-x="2048" />
<glyph unicode=" "  horiz-adv-x="770" />
<glyph unicode="&#x09;" horiz-adv-x="770" />
<glyph unicode="&#xa0;" horiz-adv-x="770" />
<glyph unicode="!" horiz-adv-x="768" d="M184 1075v299h400v-299l-76 -604h-248zM205 0v319h358v-319h-358z" />
<glyph unicode="&#x22;" horiz-adv-x="903" d="M51 1374h330l-41 -549h-248zM522 1374h330l-41 -549h-248z" />
<glyph unicode="#" horiz-adv-x="1559" d="M102 311v256h260l56 242h-201v256h258l66 309h264l-66 -309h250l66 309h264l-66 -309h203v-256h-260l-53 -242h198v-256h-254l-71 -311h-264l71 311h-250l-71 -311h-264l71 311h-207zM627 567h252l53 242h-250z" />
<glyph unicode="$" horiz-adv-x="1698" d="M143 983q0 74 23.5 130t64 98t95 70.5t117.5 47t130.5 28t133.5 13.5v133h264v-135q127 -9 250.5 -32t222.5 -52v-289q-32 15 -81 33.5t-110 36.5t-132.5 32.5t-149.5 22.5v-289q70 -15 141 -33t135.5 -42t120.5 -55.5t97.5 -72.5t65 -93t23.5 -117q0 -79 -24 -139 t-66 -104.5t-98 -75t-121 -50t-135 -30t-139 -15.5v-133h-264v131q-165 8 -305.5 34.5t-249.5 63.5v301q112 -62 253 -100t302 -49v330q-69 14 -138 31t-131.5 40t-116.5 53.5t-93.5 70.5t-62 90.5t-22.5 115.5zM487 1012q0 -24 16 -42.5t45.5 -33.5t70 -27.5t88.5 -23.5 v235q-71 -5 -114 -16.5t-66.5 -26t-31.5 -31.5t-8 -34zM971 254q68 7 113.5 21.5t73 33.5t39 40.5t11.5 43.5q0 26 -18 46.5t-49.5 36t-75 28.5t-94.5 24v-274z" />
<glyph unicode="%" horiz-adv-x="2011" d="M82 1049q0 82 32 147t87.5 110t130 69t160.5 24t161 -24t130.5 -69t87.5 -110t32 -147q0 -81 -32 -145.5t-87.5 -110.5t-130.5 -70.5t-161 -24.5t-160.5 24.5t-130 70.5t-87.5 110.5t-32 145.5zM317 0l1098 1374h277l-1096 -1374h-279zM334 1049q0 -29 10.5 -57 t30.5 -49.5t49.5 -34.5t67.5 -13q37 0 67 13t50 34.5t31 49.5t11 57q0 30 -11 57.5t-31 48.5t-50 34t-67 13q-38 0 -67.5 -13t-49.5 -34t-30.5 -48.5t-10.5 -57.5zM1108 324q0 82 32 147t87.5 110t130 69t160.5 24t161 -24t130.5 -69t87.5 -110t32 -147q0 -81 -32 -145.5 t-87.5 -110.5t-130.5 -70.5t-161 -24.5t-160.5 24.5t-130 70.5t-87.5 110.5t-32 145.5zM1360 324q0 -29 10.5 -57t30.5 -49.5t49.5 -34.5t67.5 -13q37 0 67 13t50 34.5t31 49.5t11 57q0 30 -11 57.5t-31 48.5t-50 34t-67 13q-38 0 -67.5 -13t-49.5 -34t-30.5 -48.5 t-10.5 -57.5z" />
<glyph unicode="&#x26;" horiz-adv-x="1964" d="M135 371q0 75 26 137t70.5 113t103.5 93t124 77q-54 74 -83.5 145t-29.5 139q0 77 35 137t103 101.5t166.5 63.5t226.5 22q114 0 200.5 -23.5t144 -63.5t86.5 -91.5t29 -106.5q0 -69 -34.5 -125t-91.5 -103t-130 -86.5t-151 -74.5q75 -71 166.5 -147.5t199.5 -157.5 q59 52 96.5 124.5t47.5 166.5h352q-19 -140 -88 -256t-174 -207q87 -62 177.5 -124t184.5 -124h-469q-68 43 -135 90q-121 -57 -253 -87t-263 -30q-151 0 -269.5 25.5t-200 75.5t-124.5 124.5t-43 172.5zM483 412q0 -29 13 -59.5t46.5 -55t90.5 -40t145 -15.5 q56 0 118.5 7.5t127.5 24.5q-108 81 -204.5 158.5t-178.5 155.5q-71 -38 -114.5 -81t-43.5 -95zM694 1055q0 -28 15 -61.5t43 -73.5q52 21 97 40.5t78.5 39t52.5 40.5t19 45q0 12 -6 27t-21 28t-41.5 22t-68.5 9q-51 0 -84 -9.5t-51.5 -25t-25.5 -36.5t-7 -45z" />
<glyph unicode="'" horiz-adv-x="453" d="M51 1374h350l-41 -549h-268z" />
<glyph unicode="(" horiz-adv-x="946" d="M143 684q0 145 30 264.5t84.5 219.5t130 183.5t167.5 157.5l207 -223q-74 -72 -127.5 -140t-88.5 -140t-52 -150.5t-17 -171.5t17 -171.5t52 -150.5t88.5 -140t127.5 -140l-207 -223q-92 73 -167.5 157t-130 184t-84.5 219.5t-30 264.5z" />
<glyph unicode=")" horiz-adv-x="946" d="M184 82q74 72 127.5 140t88.5 140t52 150.5t17 171.5t-17 171.5t-52 150.5t-88.5 140t-127.5 140l125 135v2l82 86q91 -69 164 -153q55 -62 100 -132t77 -149.5t50.5 -170.5t20.5 -195v-25q0 -110 -17.5 -205t-49.5 -177.5t-78 -154t-103 -135.5q-34 -38 -70.5 -72.5 t-74.5 -66.5q-5 -3 -9.5 -6t-9.5 -8l-82 86v2z" />
<glyph unicode="*" horiz-adv-x="1075" d="M102 827l289 127l-287 127l107 187l254 -187l-33 293h215l-33 -289l250 183l107 -187l-285 -127l287 -125l-109 -186l-250 182l33 -288h-215l33 290l-254 -186z" />
<glyph unicode="+" horiz-adv-x="1382" d="M152 539v292h393v394h293v-394h393v-292h-393v-394h-293v394h-393z" />
<glyph unicode="," horiz-adv-x="492" d="M0 -203l82 563h369l-146 -563h-305z" />
<glyph unicode="-" horiz-adv-x="1106" d="M143 522v328h820v-328h-820z" />
<glyph unicode="." horiz-adv-x="584" d="M102 0v360h379v-360h-379z" />
<glyph unicode="/" horiz-adv-x="1188" d="M92 -41l678 1477h326l-678 -1477h-326z" />
<glyph unicode="0" horiz-adv-x="1858" d="M119 686q0 109 28.5 205.5t80.5 176.5t125.5 143.5t164 107.5t194.5 67t218 23q170 0 318 -51.5t257 -146t171.5 -228t62.5 -297.5t-62.5 -297.5t-171.5 -228t-257 -146t-318 -51.5q-114 0 -218 23t-194.5 67t-164 107.5t-125.5 143.5t-80.5 176t-28.5 206zM489 686 q0 -104 36.5 -184t97 -134.5t140.5 -83t167 -28.5t166 28.5t139.5 83t96.5 134.5t36 184t-36 184t-96.5 135t-139.5 83t-166 28t-167 -28t-140.5 -83t-97 -135t-36.5 -184z" />
<glyph unicode="1" horiz-adv-x="983" d="M20 985v275l369 114h369v-1374h-369v1100z" />
<glyph unicode="2" horiz-adv-x="1651" d="M82 0v246q268 123 465.5 220t327 176t192.5 144.5t63 126.5q0 17 -3.5 38.5t-16 44t-36.5 44.5t-66 38.5t-104 27t-150 10.5q-81 0 -169 -10.5t-174 -29.5t-166 -46t-147 -61v327q138 48 306.5 80.5t355.5 32.5q175 0 313 -31t233.5 -89.5t146 -142t50.5 -188.5 q0 -58 -12.5 -108.5t-44.5 -98.5t-86.5 -96.5t-138 -102.5t-199.5 -116.5t-270 -138.5h780v-297h-1450z" />
<glyph unicode="3" horiz-adv-x="1626" d="M92 68v329q62 -33 139.5 -59t160 -44.5t166.5 -28t159 -9.5q136 0 217 16.5t123 42t54.5 54.5t12.5 55q0 44 -28.5 76t-100 53t-193.5 31.5t-308 11.5v272q169 0 280.5 7t178.5 22t94.5 39t27.5 59q0 11 -3.5 24t-15.5 27t-35 27t-63 23t-99 16t-142 6q-78 0 -158.5 -8 t-157.5 -24t-149 -39t-133 -54v328q136 45 291 66.5t307 21.5q149 0 281.5 -20t232 -63.5t157.5 -113t58 -168.5q0 -53 -18.5 -100.5t-58.5 -87.5t-103 -71t-152 -52q103 -23 176 -55.5t119 -75t67 -95t21 -114.5q0 -108 -58.5 -189t-162 -134.5t-244.5 -80t-305 -26.5 q-110 0 -202 9.5t-169.5 24.5t-142.5 33.5t-121 37.5z" />
<glyph unicode="4" horiz-adv-x="1667" d="M51 270v293l787 811h456v-811h312v-293h-312v-270h-368v270h-875zM453 563h473v488z" />
<glyph unicode="5" horiz-adv-x="1669" d="M119 53v324q43 -20 101.5 -41.5t136 -39t175 -29t218.5 -11.5q224 0 327 47.5t103 130.5q0 98 -112.5 144.5t-324.5 46.5q-71 0 -139.5 -5t-130 -13.5t-114.5 -20t-95 -23.5h-90v811h1260v-291h-914v-211q32 6 71 10.5t81 7.5t85 5t85 2q167 0 298.5 -30t222.5 -88 t139 -143t48 -196q0 -103 -44.5 -190.5t-141 -151t-250.5 -99.5t-373 -36q-101 0 -192.5 7.5t-171 20.5t-145 29t-113.5 33z" />
<glyph unicode="6" horiz-adv-x="1751" d="M119 670q0 152 51.5 286.5t159 235t273 159t392.5 58.5q67 0 138 -5t139 -13.5t128.5 -19.5t106.5 -23v-308q-33 13 -80.5 29t-110 29.5t-139 22.5t-167.5 9q-132 0 -229 -25t-161 -69.5t-96.5 -104t-36.5 -128.5q52 25 109.5 47.5t123.5 40t141.5 27.5t162.5 10 q133 0 247 -26t198 -82t132 -143t48 -208q0 -134 -56 -230t-154 -157.5t-231 -90t-288 -28.5q-179 0 -326 44t-253 132t-164 221t-58 310zM494 500q11 -42 45.5 -86t90 -80.5t130 -60t166.5 -23.5q73 0 137.5 11.5t112 35.5t75 60.5t27.5 86.5q0 54 -22 92t-64 61.5 t-103.5 34.5t-140.5 11q-65 0 -129.5 -12t-123.5 -31.5t-110.5 -45.5t-90.5 -54z" />
<glyph unicode="7" horiz-adv-x="1475" d="M41 1075v299h1372v-254l-741 -1120h-414l717 1075h-934z" />
<glyph unicode="8" horiz-adv-x="1749" d="M90 379q0 67 22 122t69 100t120 82t176 69q-81 32 -135 64t-86.5 67.5t-45.5 76.5t-13 91q0 77 44 142.5t129.5 113.5t212 75t291.5 27q178 0 307 -28.5t211.5 -77.5t122 -114t39.5 -138q0 -50 -13.5 -91t-46 -76.5t-87 -67.5t-135.5 -64q103 -32 176 -69t120 -82 t69 -100t22 -122q0 -99 -53 -176.5t-154 -130.5t-247 -81t-331 -28t-330.5 28t-246.5 81t-154 130.5t-53 176.5zM463 414q0 -12 4.5 -29.5t19 -37t42 -39t73 -35t112 -25.5t160.5 -10t161 9.5t112.5 25t73 35t42 39t19 37.5t4.5 30q0 31 -17.5 57.5t-63.5 50t-126 44.5 t-205 42q-125 -21 -205 -42t-125.5 -44.5t-63 -50t-17.5 -57.5zM565 1016q0 -37 26 -64t69 -46.5t98.5 -32t115.5 -19.5q50 7 105 19.5t101 32t76 46.5t30 64t-23.5 62t-65.5 40.5t-99 22t-124 6.5t-123.5 -6.5t-98 -22t-64.5 -40.5t-23 -62z" />
<glyph unicode="9" horiz-adv-x="1751" d="M102 903q0 135 56 230.5t154 157t231 90t288 28.5q178 0 325.5 -44t253.5 -132t164 -220.5t58 -310.5q0 -152 -52 -286.5t-161.5 -235t-279 -159t-404.5 -58.5q-67 0 -138 5t-138.5 13.5t-128.5 20t-107 23.5v307q33 -13 80.5 -29t110 -29.5t139 -22.5t168.5 -9 q140 0 240.5 25t166.5 69.5t99 104t37 128.5q-52 -25 -109.5 -47.5t-123 -40t-141 -27.5t-163.5 -10q-133 0 -247 26.5t-198 82t-132 142.5t-48 208zM473 928q0 -54 22 -92t64 -61.5t103.5 -34.5t140.5 -11q65 0 129.5 12t123.5 31.5t110.5 45.5t90.5 54q-11 42 -45.5 86 t-90 80.5t-130.5 60t-166 23.5q-74 0 -138 -11.5t-111.5 -35.5t-75 -60.5t-27.5 -86.5z" />
<glyph unicode=":" horiz-adv-x="625" d="M123 0v360h379v-360h-379zM123 635v360h379v-360h-379z" />
<glyph unicode=";" horiz-adv-x="645" d="M61 -203l82 563h369l-145 -563h-306zM143 635v360h379v-360h-379z" />
<glyph unicode="&#x3c;" horiz-adv-x="1323" d="M135 575v218l1036 460v-319l-604 -250l604 -248v-319z" />
<glyph unicode="=" horiz-adv-x="1382" d="M152 274v295h1079v-295h-1079zM152 801v293h1079v-293h-1079z" />
<glyph unicode="&#x3e;" horiz-adv-x="1323" d="M152 117v319l604 248l-604 250v319l1036 -460v-218z" />
<glyph unicode="?" horiz-adv-x="1329" d="M102 995v340q36 12 91 23.5t119 20.5t131.5 14.5t129.5 5.5q135 0 250.5 -22.5t200.5 -71.5t133.5 -125t48.5 -183q0 -81 -26.5 -142.5t-70 -108t-99.5 -78.5t-116 -54.5t-119.5 -36t-108.5 -22.5v-104h-359v311q67 2 132 8.5t123 17.5t107.5 27.5t85.5 38.5t56 49.5 t20 61.5q0 28 -12 53.5t-43 45t-84 31t-135 11.5q-59 0 -123 -9.5t-124.5 -25t-114.5 -35.5t-93 -41zM307 0v319h359v-319h-359z" />
<glyph unicode="@" horiz-adv-x="2081" d="M135 651q0 107 32.5 205.5t93 184.5t146.5 156.5t192.5 121.5t232 78.5t264.5 27.5q147 0 267.5 -24t215 -67t163.5 -102.5t114.5 -129.5t67.5 -148.5t22 -160.5q0 -92 -29.5 -176.5t-89.5 -149.5t-152 -104t-217 -39q-39 0 -76 7t-68 21t-55.5 35t-37.5 49 q-21 -19 -45.5 -39t-58 -36t-77.5 -26.5t-104 -10.5q-69 0 -129 19t-105 56.5t-70.5 92.5t-25.5 126q0 72 21 132t56 108.5t80 85t94.5 60.5t99 36.5t92.5 12.5q69 0 113 -18t67 -34l8 37h233l-61 -372q-1 -3 -3 -16t-4 -28t-3.5 -27.5t-1.5 -14.5q0 -11 2.5 -24t10 -24 t20.5 -18.5t34 -7.5q56 0 93 30t58.5 73.5t30.5 92t9 86.5q0 85 -27.5 158.5t-92.5 127.5t-171.5 85t-263.5 31q-117 0 -212.5 -22t-170 -60t-128.5 -90t-89.5 -112t-52.5 -125t-17 -130q0 -94 29 -177t99 -145t185.5 -98t288.5 -36q58 0 106.5 3t89.5 9t76.5 14.5 t69.5 20.5l64 -224q-37 -13 -86.5 -23.5t-104.5 -18t-112.5 -11.5t-110.5 -4q-224 0 -391 48t-277.5 138t-165.5 217.5t-55 286.5zM848 629q0 -26 7 -49.5t23 -41t41 -28t60 -10.5q34 0 60 9t47 24t38.5 35t32.5 42l37 205q-10 15 -25 26.5t-31.5 19.5t-34.5 12t-34 4 q-45 0 -85.5 -20t-70.5 -53.5t-47.5 -78.5t-17.5 -96z" />
<glyph unicode="A" horiz-adv-x="1872" d="M10 0l719 1374h414l719 -1374h-414l-129 260h-766l-129 -260h-414zM686 528h502l-250 506z" />
<glyph unicode="B" horiz-adv-x="1905" d="M215 0v1374h979q59 0 118.5 -5t113.5 -18.5t100.5 -37.5t81 -63t54 -94t19.5 -130q0 -134 -66 -212.5t-208 -104.5q100 -7 171.5 -30.5t116.5 -64t66 -99t21 -136.5q0 -80 -21 -139t-58.5 -101.5t-90 -69t-116 -42t-135.5 -21.5t-149 -6h-997zM586 276h536q75 0 129 5 t88 21t50 44.5t16 75.5t-16 75.5t-50 44t-88 20.5t-129 5h-536v-291zM586 840h547q56 0 92 10t57 27t29 40.5t8 49.5t-8 49.5t-29 41.5t-57 29t-92 11h-547v-258z" />
<glyph unicode="C" horiz-adv-x="1860" d="M123 686q0 181 71 316.5t198.5 226t304 135.5t386.5 45q99 0 185.5 -9t164.5 -26.5t151 -41.5t145 -54v-334q-57 31 -120 61.5t-139 55t-167 40t-205 15.5q-175 0 -290.5 -36t-184.5 -96t-97 -137.5t-28 -160.5q0 -55 12 -108.5t40 -101t73 -87.5t112 -69t156.5 -45.5 t206.5 -16.5q114 0 205 14.5t167 38.5t139 54.5t120 62.5v-334q-72 -30 -145 -54t-151 -41.5t-164.5 -26.5t-185.5 -9q-210 0 -386.5 45t-304 135.5t-198.5 226t-71 316.5z" />
<glyph unicode="D" horiz-adv-x="2021" d="M215 0v1374h870q113 0 217 -14.5t194.5 -46.5t164.5 -84.5t126.5 -129t81.5 -178.5t29 -233q0 -132 -29 -234.5t-81.5 -178.5t-126 -129t-163.5 -85t-194 -46.5t-217 -14.5h-872zM586 299h461q131 0 222 23.5t147.5 72t82 121.5t25.5 172t-25.5 172t-82 120.5t-147.5 71 t-222 23.5h-461v-776z" />
<glyph unicode="E" horiz-adv-x="1763" d="M215 0v1374h1391v-293h-1010v-227h958v-293h-958v-268h1024v-293h-1405z" />
<glyph unicode="F" horiz-adv-x="1630" d="M215 0v1374h1313v-293h-942v-239h893v-293h-893v-549h-371z" />
<glyph unicode="G" horiz-adv-x="2011" d="M123 686q0 128 36 232t100.5 184t155 138t199 95.5t232 55.5t254.5 18q202 0 375.5 -34.5t318.5 -88.5v-336q-57 32 -128.5 62t-155.5 53t-180 37t-202 14q-132 0 -230 -19t-168 -51t-115 -74.5t-71 -90.5t-36 -98t-10 -97q0 -41 8.5 -89t32 -96t65.5 -92t109.5 -78 t162.5 -54.5t226 -20.5q66 0 115 4t89.5 11t76 17t73.5 21v166h-416v301h787v-702q-74 -25 -165.5 -45.5t-189 -35t-195.5 -22.5t-185 -8q-135 0 -259 18t-231.5 55.5t-196 95.5t-151 138t-97 183.5t-34.5 232.5z" />
<glyph unicode="H" d="M215 0v1374h371v-500h944v500h371v-1374h-371v573h-944v-573h-371z" />
<glyph unicode="I" horiz-adv-x="801" d="M215 0v1374h371v-1374h-371z" />
<glyph unicode="J" horiz-adv-x="1415" d="M0 57v322q42 -17 92 -34.5t111.5 -31.5t136 -23t164.5 -9q97 0 161.5 21.5t103.5 60t55 90.5t16 114v807h370v-866q0 -137 -44.5 -236t-130 -163t-209.5 -94.5t-283 -30.5q-75 0 -154 7.5t-152 18.5t-134.5 23.5t-102.5 23.5z" />
<glyph unicode="K" horiz-adv-x="1907" d="M215 0v1374h373v-524l760 524h497l-925 -659l987 -715h-541l-778 571v-571h-373z" />
<glyph unicode="L" horiz-adv-x="1671" d="M215 0v1374h371v-1073h1003v-301h-1374z" />
<glyph unicode="M" horiz-adv-x="2546" d="M215 0v1374h504l555 -1040l555 1040h502v-1374h-369v965l-510 -965h-356l-510 965v-965h-371z" />
<glyph unicode="N" horiz-adv-x="2130" d="M215 0v1374h403l928 -948v948h369v-1374h-402l-927 944v-944h-371z" />
<glyph unicode="O" d="M123 686q0 177 66 312.5t188 226.5t295.5 137.5t388.5 46.5t387.5 -46.5t293.5 -137.5t186 -226.5t65 -312.5t-65 -312.5t-186 -226.5t-293.5 -137.5t-387.5 -46.5t-388.5 46.5t-295.5 137.5t-188 226.5t-66 312.5zM500 686q0 -51 10.5 -103t35.5 -99.5t67 -88.5 t104 -71.5t147 -48t197 -17.5q167 0 275 38t170.5 99t87 137.5t24.5 153.5t-24.5 153.5t-87 137.5t-170.5 99t-275 38q-112 0 -197 -17.5t-147 -48.5t-104 -72.5t-67 -89t-35.5 -99t-10.5 -101.5z" />
<glyph unicode="P" horiz-adv-x="1851" d="M215 0v1374h987q152 0 258 -34.5t172.5 -97t96.5 -148.5t30 -189t-30 -189.5t-96.5 -149t-172.5 -97.5t-258 -35h-616v-434h-371zM586 727h536q73 0 123 8.5t81 29t44.5 53.5t13.5 81t-13.5 82.5t-44.5 56.5t-81 32.5t-123 10.5h-536v-354z" />
<glyph unicode="Q" d="M123 686q0 177 66 312.5t188 226.5t295.5 137.5t388.5 46.5t387.5 -46.5t293.5 -137.5t186 -226.5t65 -312.5q0 -112 -26.5 -206.5t-76.5 -172.5q140 -53 252 -82l-151 -270q-81 31 -165 65t-169 72q-116 -65 -266 -97t-330 -32q-215 0 -388.5 46.5t-295.5 137.5 t-188 226.5t-66 312.5zM500 686q0 -51 10.5 -103t35.5 -99.5t67 -88.5t104 -71.5t147 -48t197 -17.5q60 0 112 5t99 16q-62 32 -119.5 64.5t-108.5 64.5l148 243q71 -49 164 -100t196 -100q38 54 52 113.5t14 121.5q0 77 -24.5 153.5t-87 137.5t-170.5 99t-275 38 q-112 0 -197 -17.5t-147 -48.5t-104 -72.5t-67 -89t-35.5 -99t-10.5 -101.5z" />
<glyph unicode="R" horiz-adv-x="1892" d="M215 0v1374h930q150 0 254.5 -31t170 -88t95 -137.5t29.5 -179.5q0 -87 -24.5 -152t-66 -111.5t-96.5 -78.5t-116 -53l450 -543h-434l-416 506h-405v-506h-371zM586 793h508q65 0 108.5 8t69.5 25.5t36.5 45.5t10.5 68t-10.5 68t-36.5 45.5t-69.5 25.5t-108.5 8h-508 v-294z" />
<glyph unicode="S" horiz-adv-x="1731" d="M141 991q0 91 32 157t86.5 112.5t126 75.5t150.5 45t160 22t154 6q80 0 164.5 -8t166.5 -22.5t158.5 -33.5t141.5 -40v-318q-39 19 -103 43t-145 45.5t-176 36t-195 14.5q-80 0 -136.5 -5t-95 -13t-61 -18.5t-34.5 -21.5t-15.5 -22t-3.5 -20q0 -30 30 -52.5t82 -40 t121 -33t146.5 -32t160 -36t160 -45.5t146.5 -60.5t121 -80.5t82 -106t30 -137q0 -99 -35 -170t-93.5 -120t-135.5 -78.5t-161.5 -45.5t-171 -21t-164.5 -5q-204 0 -377.5 33.5t-306.5 83.5v328q137 -76 312.5 -119t375.5 -43q118 0 192.5 12.5t116.5 32t57 42.5t15 44 q0 33 -30 57.5t-82 43t-121 34t-146.5 31t-159.5 33.5t-159.5 42.5t-146.5 57t-121 77t-82 103t-30 135.5z" />
<glyph unicode="T" horiz-adv-x="1599" d="M31 1075v299h1538v-299h-584v-1075h-371v1075h-583z" />
<glyph unicode="U" horiz-adv-x="2042" d="M205 463v911h370v-778q0 -69 17.5 -130.5t66 -107.5t136 -73t227.5 -27q139 0 226 27t135.5 73t65.5 107.5t17 130.5v778h371v-911q0 -103 -51 -194t-153 -159t-254.5 -107.5t-356.5 -39.5t-357.5 39.5t-255.5 107.5t-153 159t-51 194z" />
<glyph unicode="V" horiz-adv-x="1847" d="M10 1374h414l500 -1034l499 1034h414l-700 -1374h-432z" />
<glyph unicode="W" horiz-adv-x="2687" d="M20 1374h386l372 -934l359 934h413l351 -954l380 954h385l-552 -1374h-412l-359 924l-358 -924h-412z" />
<glyph unicode="X" horiz-adv-x="1804" d="M29 0l651 705l-619 669h445l395 -430l397 430h445l-619 -669l652 -705h-445l-430 463l-428 -463h-444z" />
<glyph unicode="Y" horiz-adv-x="1784" d="M41 1374h416l436 -553l434 553h416l-666 -813v-561h-370v561z" />
<glyph unicode="Z" horiz-adv-x="1714" d="M135 0v287l903 786h-876v301h1409v-252l-944 -821h964v-301h-1456z" />
<glyph unicode="[" horiz-adv-x="1010" d="M236 -121v1610h682v-270h-353v-1069h353v-271h-682z" />
<glyph unicode="\" horiz-adv-x="1188" d="M92 1436h326l678 -1477h-326z" />
<glyph unicode="]" horiz-adv-x="1010" d="M92 -121v271h352v1069h-352v270h682v-1610h-682z" />
<glyph unicode="^" horiz-adv-x="1208" d="M51 784l404 590h299l403 -590h-338l-215 351l-215 -351h-338z" />
<glyph unicode="_" horiz-adv-x="1024" d="M0 -135h1024v-258h-1024v258z" />
<glyph unicode="`" horiz-adv-x="1081" d="M145 1325l131 264l482 -280l-90 -170z" />
<glyph unicode="a" horiz-adv-x="1960" d="M113 371q0 139 76 231.5t232 151.5t394.5 91t564.5 50v29q0 34 -18 67.5t-65.5 59t-130 41.5t-210.5 16q-101 0 -199.5 -10.5t-190 -28.5t-173.5 -42t-149 -50v330q70 18 157 35t181 29.5t190 20t184 7.5q173 0 319 -28.5t251.5 -88.5t165 -152t59.5 -219v-911h-371v135 q-71 -39 -152.5 -69t-169.5 -51t-181.5 -31.5t-188.5 -10.5q-111 0 -214.5 21t-183.5 68t-128.5 123t-48.5 186zM487 387q0 -24 13 -46.5t45.5 -39.5t86.5 -27t136 -10q91 0 178 14t165 38.5t146.5 58t122.5 71.5v181q-214 -8 -363.5 -23t-248.5 -35t-155.5 -43t-84.5 -47 t-34.5 -48t-6.5 -44z" />
<glyph unicode="b" horiz-adv-x="1905" d="M215 0v1374h979q59 0 118.5 -5t113.5 -18.5t100.5 -37.5t81 -63t54 -94t19.5 -130q0 -134 -66 -212.5t-208 -104.5q100 -7 171.5 -30.5t116.5 -64t66 -99t21 -136.5q0 -80 -21 -139t-58.5 -101.5t-90 -69t-116 -42t-135.5 -21.5t-149 -6h-997zM586 276h536q75 0 129 5 t88 21t50 44.5t16 75.5t-16 75.5t-50 44t-88 20.5t-129 5h-536v-291zM586 840h547q56 0 92 10t57 27t29 40.5t8 49.5t-8 49.5t-29 41.5t-57 29t-92 11h-547v-258z" />
<glyph unicode="c" horiz-adv-x="1860" d="M123 686q0 181 71 316.5t198.5 226t304 135.5t386.5 45q99 0 185.5 -9t164.5 -26.5t151 -41.5t145 -54v-334q-57 31 -120 61.5t-139 55t-167 40t-205 15.5q-175 0 -290.5 -36t-184.5 -96t-97 -137.5t-28 -160.5q0 -55 12 -108.5t40 -101t73 -87.5t112 -69t156.5 -45.5 t206.5 -16.5q114 0 205 14.5t167 38.5t139 54.5t120 62.5v-334q-72 -30 -145 -54t-151 -41.5t-164.5 -26.5t-185.5 -9q-210 0 -386.5 45t-304 135.5t-198.5 226t-71 316.5z" />
<glyph unicode="d" horiz-adv-x="2021" d="M215 0v1374h870q113 0 217 -14.5t194.5 -46.5t164.5 -84.5t126.5 -129t81.5 -178.5t29 -233q0 -132 -29 -234.5t-81.5 -178.5t-126 -129t-163.5 -85t-194 -46.5t-217 -14.5h-872zM586 299h461q131 0 222 23.5t147.5 72t82 121.5t25.5 172t-25.5 172t-82 120.5t-147.5 71 t-222 23.5h-461v-776z" />
<glyph unicode="e" horiz-adv-x="1982" d="M123 678q0 156 63.5 289.5t180 232t281.5 154t368 55.5q187 0 342.5 -50.5t267 -149.5t173 -244t61.5 -334v-92h-1354q18 -65 59.5 -119t112.5 -92t174.5 -59t247.5 -21q102 0 200 12.5t183 33t153.5 45.5t110.5 50v-321q-169 -56 -337.5 -80.5t-344.5 -24.5 q-225 0 -400.5 48.5t-295.5 140.5t-183 225t-63 301zM506 811h985q-5 51 -30.5 105.5t-80.5 98.5t-144 72.5t-222 28.5q-125 0 -216 -31t-152.5 -77t-95.5 -99t-44 -98z" />
<glyph unicode="f" horiz-adv-x="1774" d="M215 0v924q0 106 31.5 190t105.5 141.5t196 88t304 30.5h819v-293h-807q-65 0 -116.5 -5t-87.5 -24t-55 -56.5t-19 -102.5v-51h1036v-293h-1036v-549h-371z" />
<glyph unicode="g" horiz-adv-x="2011" d="M123 686q0 128 36 232t100.5 184t155 138t199 95.5t232 55.5t254.5 18q202 0 375.5 -34.5t318.5 -88.5v-336q-57 32 -128.5 62t-155.5 53t-180 37t-202 14q-132 0 -230 -19t-168 -51t-115 -74.5t-71 -90.5t-36 -98t-10 -97q0 -41 8.5 -89t32 -96t65.5 -92t109.5 -78 t162.5 -54.5t226 -20.5q66 0 115 4t89.5 11t76 17t73.5 21v166h-416v301h787v-702q-74 -25 -165.5 -45.5t-189 -35t-195.5 -22.5t-185 -8q-135 0 -259 18t-231.5 55.5t-196 95.5t-151 138t-97 183.5t-34.5 232.5z" />
<glyph unicode="h" d="M215 0v1374h371v-500h944v500h371v-1374h-371v573h-944v-573h-371z" />
<glyph unicode="i" horiz-adv-x="801" d="M215 0v1374h371v-1374h-371z" />
<glyph unicode="j" horiz-adv-x="1415" d="M0 57v322q42 -17 92 -34.5t111.5 -31.5t136 -23t164.5 -9q97 0 161.5 21.5t103.5 60t55 90.5t16 114v807h370v-866q0 -137 -44.5 -236t-130 -163t-209.5 -94.5t-283 -30.5q-75 0 -154 7.5t-152 18.5t-134.5 23.5t-102.5 23.5z" />
<glyph unicode="k" horiz-adv-x="2001" d="M215 0v1374h371v-530h76q77 0 161 12t166.5 38t158.5 67t136 100t100 136.5t50 176.5h378q-10 -109 -43.5 -197t-83 -157.5t-110.5 -121.5t-125 -89.5t-127.5 -62t-118.5 -37.5q70 -11 145.5 -34.5t149.5 -62t141.5 -94.5t121.5 -131t90 -171t46 -216h-378 q-10 112 -54 196.5t-110.5 145.5t-150 101t-171.5 63.5t-175.5 33t-162.5 9.5h-110v-549h-371z" />
<glyph unicode="l" horiz-adv-x="1675" d="M215 451v923h371v-786q0 -86 16 -140.5t52 -86.5t93.5 -44t141.5 -12h704v-305h-780q-162 0 -275.5 26.5t-185.5 82t-104.5 140.5t-32.5 202z" />
<glyph unicode="m" horiz-adv-x="2859" d="M215 0v1374h371v-151q49 31 106.5 64t125 60t145 44.5t167.5 17.5q88 0 154 -18.5t114.5 -48t82.5 -66t59 -72.5q71 46 140 84t139 65t143 41.5t152 14.5q126 0 225.5 -35t168.5 -96t105.5 -143.5t36.5 -176.5v-958h-371v905q0 55 -17 95t-45.5 65t-67 37t-81.5 12 q-200 0 -456 -180q3 -17 4.5 -40t1.5 -46v-848h-371v913q0 55 -17 93.5t-46.5 62.5t-68 34.5t-81.5 10.5q-52 0 -109.5 -15t-116 -42t-115 -64t-107.5 -80v-913h-371z" />
<glyph unicode="n" horiz-adv-x="2103" d="M215 0v1374h371v-188q70 40 149 79.5t168 71.5t189 52t211 20q139 0 248.5 -33.5t185.5 -95t116.5 -149t40.5 -195.5v-936h-370v770q0 77 -13 139.5t-48.5 107t-99 69t-163.5 24.5q-76 0 -159.5 -20.5t-165.5 -54.5t-156.5 -79t-132.5 -94v-862h-371z" />
<glyph unicode="o" d="M123 686q0 177 66 312.5t188 226.5t295.5 137.5t388.5 46.5t387.5 -46.5t293.5 -137.5t186 -226.5t65 -312.5t-65 -312.5t-186 -226.5t-293.5 -137.5t-387.5 -46.5t-388.5 46.5t-295.5 137.5t-188 226.5t-66 312.5zM500 686q0 -51 10.5 -103t35.5 -99.5t67 -88.5 t104 -71.5t147 -48t197 -17.5q167 0 275 38t170.5 99t87 137.5t24.5 153.5t-24.5 153.5t-87 137.5t-170.5 99t-275 38q-112 0 -197 -17.5t-147 -48.5t-104 -72.5t-67 -89t-35.5 -99t-10.5 -101.5z" />
<glyph unicode="p" horiz-adv-x="1851" d="M215 0v1374h987q152 0 258 -34.5t172.5 -97t96.5 -148.5t30 -189t-30 -189.5t-96.5 -149t-172.5 -97.5t-258 -35h-616v-434h-371zM586 727h536q73 0 123 8.5t81 29t44.5 53.5t13.5 81t-13.5 82.5t-44.5 56.5t-81 32.5t-123 10.5h-536v-354z" />
<glyph unicode="q" horiz-adv-x="2136" d="M123 686q0 177 66 312.5t188 226.5t295.5 137.5t388.5 46.5t387.5 -46.5t293.5 -137.5t186 -226.5t65 -312.5q0 -112 -26.5 -206t-76.5 -173q61 -15 112 -26t89 -19l80 -16l-100 -312l-451 140q-225 -111 -559 -111q-215 0 -388.5 46.5t-295.5 137.5t-188 226.5 t-66 312.5zM500 686q0 -51 10.5 -103t35.5 -99.5t67 -88.5t104 -71.5t147 -48t197 -17.5q167 0 275 38t170.5 99t87 137.5t24.5 153.5t-24.5 153.5t-87 137.5t-170.5 99t-275 38q-112 0 -197 -17.5t-147 -48.5t-104 -72.5t-67 -89t-35.5 -99t-10.5 -101.5z" />
<glyph unicode="r" horiz-adv-x="1499" d="M215 0v1374h371v-223q67 50 137.5 96.5t147 82.5t161.5 57.5t180 21.5q36 0 73.5 -3.5t73 -8.5t66.5 -11t54 -12v-311q-15 5 -43.5 13.5t-66.5 17t-83.5 14.5t-93.5 6q-100 0 -186.5 -24.5t-161.5 -65t-139.5 -92t-118.5 -105.5v-827h-371z" />
<glyph unicode="s" horiz-adv-x="1731" d="M141 991q0 91 32 157t86.5 112.5t126 75.5t150.5 45t160 22t154 6q80 0 164.5 -8t166.5 -22.5t158.5 -33.5t141.5 -40v-318q-39 19 -103 43t-145 45.5t-176 36t-195 14.5q-80 0 -136.5 -5t-95 -13t-61 -18.5t-34.5 -21.5t-15.5 -22t-3.5 -20q0 -30 30 -52.5t82 -40 t121 -33t146.5 -32t160 -36t160 -45.5t146.5 -60.5t121 -80.5t82 -106t30 -137q0 -99 -35 -170t-93.5 -120t-135.5 -78.5t-161.5 -45.5t-171 -21t-164.5 -5q-204 0 -377.5 33.5t-306.5 83.5v328q137 -76 312.5 -119t375.5 -43q118 0 192.5 12.5t116.5 32t57 42.5t15 44 q0 33 -30 57.5t-82 43t-121 34t-146.5 31t-159.5 33.5t-159.5 42.5t-146.5 57t-121 77t-82 103t-30 135.5z" />
<glyph unicode="t" horiz-adv-x="1599" d="M31 1075v299h1538v-299h-584v-1075h-371v1075h-583z" />
<glyph unicode="u" horiz-adv-x="2103" d="M209 434v940h371v-774q0 -77 13 -139.5t48 -107t98 -69t164 -24.5q76 0 159.5 21t165.5 56t156.5 80.5t133.5 94.5v862h370v-1374h-370v188q-70 -40 -149 -80.5t-168 -73t-189 -53t-211 -20.5q-139 0 -249 33.5t-186 95t-116.5 149t-40.5 195.5z" />
<glyph unicode="v" horiz-adv-x="1847" d="M10 1374h414l500 -1034l499 1034h414l-700 -1374h-432z" />
<glyph unicode="w" horiz-adv-x="2687" d="M20 1374h386l372 -934l359 934h413l351 -954l380 954h385l-552 -1374h-412l-359 924l-358 -924h-412z" />
<glyph unicode="x" horiz-adv-x="1804" d="M29 0l651 705l-619 669h445l395 -430l397 430h445l-619 -669l652 -705h-445l-430 463l-428 -463h-444z" />
<glyph unicode="y" horiz-adv-x="2062" d="M184 61v326q64 -27 142.5 -51t170.5 -42.5t197.5 -29t223.5 -10.5q111 0 195.5 13t146.5 35t103 50.5t66 59t35.5 60.5t10.5 56v121q-102 -75 -243 -123.5t-321 -48.5q-209 0 -348.5 40.5t-223.5 117t-119.5 186.5t-35.5 248v305h373v-268q0 -81 21.5 -144t68 -105.5 t120.5 -64.5t179 -22q89 0 168.5 22t146.5 58t121 82t93 94v348h372v-846q0 -134 -66 -239t-187.5 -177.5t-294 -110.5t-386.5 -38q-94 0 -197.5 7.5t-202 21t-184.5 31t-145 38.5z" />
<glyph unicode="z" horiz-adv-x="1714" d="M135 0v287l903 786h-876v301h1409v-252l-944 -821h964v-301h-1456z" />
<glyph unicode="{" horiz-adv-x="975" d="M51 553v266h39q64 0 102 16.5t58 51t25.5 88t5.5 127.5v41q0 93 26.5 158.5t74 107.5t113.5 61t144 19h244v-270h-86q-46 0 -81 -5t-58.5 -25t-35.5 -61t-12 -114v-15q0 -56 -7 -106.5t-26.5 -92t-54.5 -71t-92 -43.5q56 -15 91.5 -44.5t55 -70.5t26.5 -91.5t7 -106.5 v-19q0 -73 12 -114t35.5 -61t58.5 -24.5t81 -4.5h86v-271h-244q-78 0 -144 19t-113.5 61t-74 107.5t-26.5 158.5v47q0 75 -6 128t-26.5 87t-58 50t-100.5 16h-39z" />
<glyph unicode="|" horiz-adv-x="614" d="M164 -483v2048h287v-2048h-287z" />
<glyph unicode="}" horiz-adv-x="975" d="M92 -121v271h86q46 0 81 4.5t58.5 24.5t35.5 61t12 114v19q0 56 7 106.5t26.5 91.5t55 70.5t91.5 44.5q-57 14 -92.5 43.5t-55 71t-26 92t-6.5 106.5v15q0 73 -12 114t-35.5 61t-58.5 25t-81 5h-86v270h244q78 0 144 -19t113.5 -61t74 -107.5t26.5 -158.5v-41 q0 -74 5.5 -127.5t25.5 -88t57.5 -51t102.5 -16.5h39v-266h-39q-63 0 -100.5 -16t-58 -50t-26.5 -87t-6 -128v-47q0 -93 -26.5 -158.5t-74 -107.5t-113.5 -61t-144 -19h-244z" />
<glyph unicode="~" horiz-adv-x="1382" d="M152 481v303q21 22 52 40.5t67 32.5t73.5 22t71.5 8q61 0 132.5 -17.5t145 -38t145.5 -38t136 -17.5q34 0 71 10t71.5 26.5t64 37t49.5 41.5v-305q-21 -21 -50 -39.5t-64 -32t-73.5 -21.5t-78.5 -8q-62 0 -132.5 17t-143.5 37.5t-145 37.5t-136 17q-35 0 -72 -10 t-71.5 -26t-64 -36.5t-48.5 -40.5z" />
<glyph unicode="&#xa1;" horiz-adv-x="768" d="M184 -2v299l76 604h248l76 -604v-299h-400zM205 1053v319h358v-319h-358z" />
<glyph unicode="&#xa2;" horiz-adv-x="1509" d="M61 698q0 138 48 246t136 185.5t210.5 124.5t271.5 63v186h264v-182q67 -4 127.5 -13t117 -23.5t110.5 -32.5t108 -40v-321q-45 24 -93 48t-104 44t-121.5 35t-144.5 20v-678q79 5 144.5 19t121.5 34t104 44t93 49v-322q-107 -43 -218.5 -72t-244.5 -38v-203h-264v209 q-149 16 -271.5 62.5t-210.5 124t-136 185t-48 246.5zM424 698q0 -53 15.5 -103.5t51.5 -94t94 -76t142 -49.5v649q-84 -18 -142 -51.5t-94 -77t-51.5 -94.5t-15.5 -103z" />
<glyph unicode="&#xa3;" horiz-adv-x="1759" d="M119 -20v294q48 7 94 21.5t81.5 42.5t57 72.5t21.5 111.5v37h-252v250h252v45q0 130 53 231.5t146.5 171.5t222.5 106t282 36q124 0 248.5 -16.5t233.5 -41.5v-327q-38 16 -87 33t-107 31t-124 23t-137 9q-88 0 -148.5 -10.5t-100.5 -29t-62.5 -43.5t-33.5 -54t-13.5 -61 t-2.5 -64v-39h578v-250h-578v-16q0 -26 -7 -56t-19 -59.5t-28.5 -55.5t-35.5 -44q8 3 21 5t28 3t30 1.5t26 0.5q78 0 147 -12t134.5 -27t130 -27t133.5 -12q71 0 128 8.5t99 20t69.5 24t40.5 21.5v-330q-14 -2 -40.5 -7.5t-66.5 -11t-94.5 -10t-123.5 -4.5q-95 0 -187 12 t-179 27t-168 27t-154 12q-62 0 -109 -4t-86 -10.5t-73 -14t-69.5 -15.5t-76.5 -14.5t-94 -10.5z" />
<glyph unicode="&#xa4;" horiz-adv-x="1227" d="M119 354l147 146q-21 42 -33 89t-12 93q0 48 11 94t34 88l-147 148l166 166l147 -148q42 23 89.5 33t96.5 10q45 0 90 -10t87 -33l147 148l166 -166l-147 -148q26 -45 35.5 -88.5t9.5 -93.5q0 -48 -9.5 -94t-33.5 -88l145 -146l-166 -168l-147 150q-45 -26 -89.5 -36.5 t-91.5 -10.5q-51 0 -95 8.5t-87 36.5l-147 -148zM453 682q0 -33 12 -61.5t34 -49.5t51 -34t64 -15q30 0 59 10.5t52 31t37 50.5t14 68q0 32 -13 61.5t-35.5 52t-52 35.5t-61.5 13q-35 0 -64 -14t-51 -36.5t-34 -51.5t-12 -60z" />
<glyph unicode="&#xa5;" horiz-adv-x="1784" d="M41 1374h416l436 -553l434 553h416l-451 -545h307v-211h-481l-41 -51v-94h522v-211h-522v-262h-370v262h-523v211h523v94l-43 51h-480v211h305z" />
<glyph unicode="&#xa6;" horiz-adv-x="614" d="M164 -352v758h287v-758h-287zM164 672v758h287v-758h-287z" />
<glyph unicode="&#xa7;" horiz-adv-x="1147" d="M102 705q0 37 13.5 68.5t36 58t51.5 48.5t61 40q-45 37 -72.5 82.5t-27.5 105.5q0 79 34 134t92.5 89.5t136 50t163.5 15.5q97 0 187.5 -13t162.5 -36v-263q-29 19 -70 34.5t-88 27t-96 18t-94 6.5q-57 0 -86 -7.5t-41.5 -17t-13 -20t-0.5 -16.5q0 -22 25.5 -42t67 -41 t95 -43t109 -47.5t109 -55t95 -65t67 -78t25.5 -93.5q0 -38 -13.5 -69.5t-35.5 -58t-51.5 -49t-60.5 -40.5q45 -35 72.5 -80.5t27.5 -105.5q0 -79 -35 -134t-94 -89.5t-138 -50t-167 -15.5q-48 0 -98.5 4t-99 11.5t-93 17.5t-80.5 22v262q28 -18 72.5 -35t95.5 -29.5 t103.5 -20t97.5 -7.5q57 0 87 7.5t44 17.5t16 20.5t2 16.5q0 21 -25.5 41.5t-67.5 41t-95 42.5t-109 47.5t-109 55.5t-95 65.5t-67.5 78t-25.5 93.5zM387 739q0 -35 26 -62t69 -50t97 -44.5t111 -45.5q29 12 49.5 30.5t20.5 42.5q0 34 -26.5 61t-69 50.5t-97 45.5t-110.5 46 q-29 -12 -49.5 -30.5t-20.5 -43.5z" />
<glyph unicode="&#xa8;" horiz-adv-x="1081" d="M154 1159v311h311v-311h-311zM616 1159v311h312v-311h-312z" />
<glyph unicode="&#xa9;" horiz-adv-x="1579" d="M102 686q0 95 24.5 183t69.5 164.5t107.5 139.5t138.5 107.5t163.5 69t182.5 24.5t183 -24.5t165 -69t139.5 -107.5t107.5 -139.5t69.5 -164.5t24.5 -183t-24.5 -182.5t-69.5 -164t-107.5 -139t-139.5 -107t-165 -69t-183 -24.5q-94 0 -182 24.5t-164 69t-138.5 107 t-107.5 139t-69.5 164t-24.5 182.5zM266 686q0 -108 41 -203.5t112 -166t166 -111.5t203 -41q109 0 204.5 41t167 111.5t112.5 166t41 203.5q0 109 -41 204.5t-112.5 166.5t-167 112t-204.5 41q-108 0 -203 -41t-166 -112t-112 -166.5t-41 -204.5zM387 684q0 98 31 175.5 t85 131.5t127.5 82.5t157.5 28.5q42 0 79.5 -4.5t73.5 -14t71.5 -24t72.5 -33.5v-182q-41 31 -76 51t-67 32t-64 16.5t-67 4.5q-58 0 -104 -19t-78.5 -53.5t-50 -83.5t-17.5 -108t17.5 -107t50 -82.5t78.5 -53.5t104 -19q35 0 67 4.5t64 16.5t67 31.5t76 49.5v-178 q-72 -38 -142 -58t-155 -20q-84 0 -157.5 28.5t-127.5 82t-85 130.5t-31 175z" />
<glyph unicode="&#xaa;" horiz-adv-x="1049" d="M61 885q0 68 36 113.5t112.5 75t196 45t286.5 24.5v6q0 17 -6 31.5t-26.5 25.5t-59.5 17t-104 6q-53 0 -103.5 -5t-98 -14t-89.5 -20.5t-76 -24.5v181q36 9 81 17.5t93.5 15t98 10.5t94.5 4q88 0 169 -14.5t143 -44.5t99 -75.5t37 -107.5v-444h-252v61 q-74 -38 -155.5 -59t-180.5 -21q-57 0 -110 10t-94 33.5t-66 61t-25 92.5zM92 373v194h854v-194h-854zM309 907q0 -25 22 -41t81 -16q48 0 87 6.5t73 18t63 26t57 29.5v71q-90 -4 -153.5 -10t-106 -14t-67 -17t-37 -18t-16 -18t-3.5 -17z" />
<glyph unicode="&#xab;" horiz-adv-x="1208" d="M61 641v90l347 377l196 -182l-237 -240l237 -240l-196 -182zM594 641v90l346 377l197 -182l-238 -240l238 -240l-197 -182z" />
<glyph unicode="&#xac;" horiz-adv-x="1382" d="M152 602v293h1079v-600h-293v307h-786z" />
<glyph unicode="&#xad;" horiz-adv-x="1106" d="M143 522v328h820v-328h-820z" />
<glyph unicode="&#xae;" horiz-adv-x="1229" d="M109 893q0 105 39.5 197.5t107.5 161t160 108t196 39.5q105 0 197.5 -39.5t161 -108t108 -161t39.5 -197.5t-39.5 -196.5t-108 -160t-161 -108t-197.5 -39.5q-104 0 -196 39.5t-160 108t-107.5 160t-39.5 196.5zM242 893q0 -78 29 -145.5t79 -117.5t117.5 -79t144.5 -29 q78 0 146.5 29t118.5 79t79 117.5t29 145.5t-29 146.5t-79 118.5t-118.5 79t-146.5 29q-77 0 -144.5 -29t-117.5 -79t-79 -118.5t-29 -146.5zM389 606v582h223q115 0 176.5 -45.5t61.5 -134.5q0 -33 -7.5 -58t-21 -44.5t-32 -33.5t-39.5 -26l90 -240h-150l-74 217h-81v-217 h-146zM535 936h69q50 0 73 21.5t23 50.5t-22.5 47t-73.5 18h-69v-137z" />
<glyph unicode="&#xaf;" horiz-adv-x="1081" d="M205 1180v256h672v-256h-672z" />
<glyph unicode="&#xb0;" horiz-adv-x="764" d="M92 1083q0 60 22.5 113t62 92.5t92 62.5t112.5 23t113 -23t92.5 -62.5t62.5 -92.5t23 -113t-23 -112.5t-62.5 -91.5t-92.5 -61.5t-113 -22.5t-112.5 22.5t-92 61.5t-62 91.5t-22.5 112.5zM272 1083q0 -46 31 -77t78 -31q23 0 43 8.5t35 23t24 34t9 42.5t-9 43.5t-24 35.5 t-35 23.5t-43 8.5q-47 0 -78 -32t-31 -79z" />
<glyph unicode="&#xb1;" horiz-adv-x="1382" d="M152 0v293h1079v-293h-1079zM152 666v292h393v312h293v-312h393v-292h-393v-291h-293v291h-393z" />
<glyph unicode="&#xb2;" horiz-adv-x="1139" d="M72 508v221q169 73 294.5 124.5t208.5 90.5t124.5 71.5t41.5 67.5q0 19 -9 36t-32 29t-62.5 19t-100.5 7q-60 0 -121.5 -6.5t-120 -19.5t-113 -31t-100.5 -40v254q100 31 218.5 44.5t242.5 13.5q98 0 188.5 -18t159.5 -53.5t110 -86.5t41 -117q0 -63 -26.5 -110.5 t-88 -90.5t-162.5 -86.5t-251 -97.5h543v-221h-985z" />
<glyph unicode="&#xb3;" horiz-adv-x="1141" d="M72 545v225q39 -18 89 -33.5t106 -27t116 -18.5t119 -7q82 0 132.5 7.5t78 20t36.5 29.5t9 35q0 22 -22 40t-71.5 30.5t-129 19.5t-195.5 8v189q75 0 144.5 3t123.5 10.5t86.5 21t32.5 35.5q0 16 -11.5 28t-37 19.5t-67 11.5t-101.5 4q-50 0 -108 -5.5t-115 -15 t-109 -23.5t-90 -32v223q46 12 99 20.5t107.5 14t109.5 8.5t106 3q97 0 189.5 -9.5t165 -34.5t117 -68.5t44.5 -111.5q0 -33 -10.5 -63t-37 -54.5t-71 -43.5t-112.5 -31q72 -8 122 -26.5t81.5 -46.5t46 -64.5t14.5 -79.5q0 -69 -44.5 -118.5t-118.5 -82t-170 -48t-198 -15.5 q-71 0 -137 4t-124.5 11.5t-108 17t-86.5 20.5z" />
<glyph unicode="&#xb4;" horiz-adv-x="1081" d="M324 1309l481 280l131 -264l-522 -186z" />
<glyph unicode="&#xb5;" horiz-adv-x="1616" d="M51 -410l264 1368h330l-108 -557q4 -28 16 -59t33 -56.5t50.5 -42t68.5 -16.5q58 0 105.5 25t86 64.5t70 89.5t57.5 100l88 452h330l-115 -596q-8 -42 -11 -75t-3 -62q0 -34 3.5 -62.5t9.5 -54.5t13.5 -52.5t16.5 -55.5h-330q-7 22 -12 40t-9 37.5t-8 44.5t-8 62 q-27 -42 -55.5 -79.5t-65 -66t-83 -45t-107.5 -16.5q-26 0 -54 7t-54.5 23t-49.5 42t-39 64l-100 -523h-330z" />
<glyph unicode="&#xb6;" horiz-adv-x="1303" d="M123 983q0 104 39 178t103.5 121.5t147 69.5t169.5 22h516v-1374h-193v1200h-131v-1200h-192v592q-87 0 -169.5 22.5t-147 69.5t-103.5 121t-39 178z" />
<glyph unicode="&#xb7;" horiz-adv-x="584" d="M102 510v360h379v-360h-379z" />
<glyph unicode="&#xb8;" horiz-adv-x="1081" d="M211 -283q45 -20 103 -34.5t120 -14.5q31 0 58.5 3.5t47 10.5t31 18t11.5 26q0 18 -13.5 28.5t-33.5 16.5t-42 8t-40 2q-26 0 -54 -3t-51 -9l96 251h172l-38 -98q43 0 92 -7.5t89.5 -29.5t67.5 -61t27 -103t-31.5 -107t-82.5 -69.5t-114 -37.5t-126 -11q-56 0 -100.5 3 t-79 7t-61.5 8.5t-48 8.5v194z" />
<glyph unicode="&#xb9;" horiz-adv-x="719" d="M20 1090v219l216 65h299v-866h-299v647z" />
<glyph unicode="&#xba;" horiz-adv-x="1108" d="M61 1040q0 87 36.5 153t102 110.5t156.5 67t199 22.5q109 0 199.5 -22.5t155.5 -67t101 -110.5t36 -153t-36 -152.5t-101 -110t-155.5 -67t-199.5 -22.5q-108 0 -199 22.5t-156.5 67t-102 110t-36.5 152.5zM111 373v194h884v-194h-884zM313 1040q0 -30 12 -60t40 -54 t74.5 -39t115.5 -15t115.5 15t74.5 39t40 54t12 60t-12 60t-40 54t-74.5 39t-115.5 15t-115.5 -15.5t-74.5 -39.5t-40 -54t-12 -59z" />
<glyph unicode="&#xbb;" horiz-adv-x="1208" d="M72 446l237 240l-237 240l196 182l346 -377v-90l-346 -377zM604 446l238 240l-238 240l197 182l346 -377v-90l-346 -377z" />
<glyph unicode="&#xbc;" horiz-adv-x="1964" d="M41 1145v176l176 53h275v-729h-275v553zM197 0l1097 1374h277l-1096 -1374h-278zM991 135v174l449 420h309v-418h174v-176h-174v-135h-274v135h-484zM1225 311h250v242z" />
<glyph unicode="&#xbd;" horiz-adv-x="2011" d="M41 1145v176l176 53h275v-729h-275v553zM197 0l1097 1374h277l-1096 -1374h-278zM1133 0v174q123 54 219.5 94.5t163 75.5t102 67t35.5 68q0 42 -40.5 62t-131.5 20q-37 0 -81.5 -6.5t-90 -18t-89 -27.5t-79.5 -36v207q38 14 87.5 25.5t101.5 19.5t102.5 12.5t91.5 3.5 q74 -1 149.5 -11t136 -37.5t98.5 -76t38 -124.5q0 -49 -24.5 -88.5t-76 -75.5t-131 -70t-188.5 -72h424v-186h-817z" />
<glyph unicode="&#xbe;" horiz-adv-x="2210" d="M102 672v182q77 -41 153 -59.5t171 -18.5q28 0 58.5 2.5t56 11.5t42.5 26t17 46q0 23 -13 41t-45 30.5t-85 19.5t-133 8v147q83 0 132.5 5.5t76 15t34.5 23t8 28.5q0 18 -13.5 29.5t-35 18.5t-47.5 10t-51 3q-48 0 -89.5 -5t-79 -13.5t-72 -20.5t-68.5 -26v174 q37 8 73 15t75 11.5t84.5 7t103.5 2.5q65 0 137 -6.5t132 -26.5t99 -57t39 -98q0 -56 -42 -100.5t-140 -63.5q64 -8 105 -28t64 -45.5t31.5 -55t8.5 -57.5q0 -61 -35.5 -102.5t-97.5 -67t-146.5 -36.5t-181.5 -11q-102 0 -181.5 12t-144.5 29zM442 0l1098 1374h277 l-1096 -1374h-279zM1237 135v174l449 420h309v-418h174v-176h-174v-135h-275v135h-483zM1470 311h250v242z" />
<glyph unicode="&#xbf;" horiz-adv-x="1329" d="M123 377q0 81 26.5 142.5t70 108t99.5 78.5t116 54.5t119.5 36t109.5 22.5v105h358v-312q-101 -3 -195 -16t-167.5 -37.5t-117.5 -61t-44 -87.5q0 -29 12 -54.5t43 -45t84 -31t135 -11.5q59 0 123 9.5t124.5 25.5t114.5 35.5t93 40.5v-340q-36 -12 -91 -23.5 t-118.5 -20.5t-131.5 -14.5t-130 -5.5q-135 0 -250.5 22.5t-200.5 71.5t-133.5 125t-48.5 183zM664 1055v319h358v-319h-358z" />
<glyph unicode="&#xc0;" horiz-adv-x="1872" d="M10 0l719 1374h414l719 -1374h-414l-129 260h-766l-129 -260h-414zM540 1687l131 264l482 -280l-90 -170zM686 528h502l-250 506z" />
<glyph unicode="&#xc1;" horiz-adv-x="1872" d="M10 0l719 1374h414l719 -1374h-414l-129 260h-766l-129 -260h-414zM686 528h502l-250 506zM725 1671l481 280l131 -264l-522 -186z" />
<glyph unicode="&#xc2;" horiz-adv-x="1872" d="M10 0l719 1374h414l719 -1374h-414l-129 260h-766l-129 -260h-414zM467 1689l469 266l469 -266l-121 -188l-348 180l-348 -180zM686 528h502l-250 506z" />
<glyph unicode="&#xc3;" horiz-adv-x="1872" d="M10 0l719 1374h414l719 -1374h-414l-129 260h-766l-129 -260h-414zM544 1509q0 85 17.5 152.5t50.5 114.5t79.5 72t104.5 25q47 0 81.5 -19t64.5 -41.5t58.5 -41t64.5 -18.5q30 0 47.5 15t26.5 34.5t12 39.5t4 31h176q0 -96 -17 -165t-49.5 -113t-79 -65t-104.5 -21 q-54 0 -91 19t-66 41.5t-55 41.5t-58 19q-30 0 -47.5 -15t-26.5 -35.5t-12 -40.5t-4 -30h-177zM686 528h502l-250 506z" />
<glyph unicode="&#xc4;" horiz-adv-x="1872" d="M10 0l719 1374h414l719 -1374h-414l-129 260h-766l-129 -260h-414zM549 1521v311h311v-311h-311zM686 528h502l-250 506zM1011 1521v311h312v-311h-312z" />
<glyph unicode="&#xc5;" horiz-adv-x="1872" d="M10 0l719 1374h414l719 -1374h-414l-129 260h-766l-129 -260h-414zM633 1716q0 49 19.5 92.5t57.5 76t94.5 51.5t131.5 19q74 0 130.5 -19t95 -51.5t58 -76t19.5 -92.5t-19.5 -92.5t-58 -76.5t-95 -52t-130.5 -19q-75 0 -131.5 19t-94.5 52t-57.5 76.5t-19.5 92.5z M686 528h502l-250 506zM837 1716q0 -41 25.5 -69t73.5 -28t72 28t24 69q0 40 -24 68t-72 28t-73.5 -28t-25.5 -68z" />
<glyph unicode="&#xc6;" horiz-adv-x="2664" d="M-41 0l940 1374h1608v-293h-948v-227h897v-293h-897v-268h962v-293h-1343v287h-613l-196 -287h-410zM743 547h435v534h-70z" />
<glyph unicode="&#xc7;" horiz-adv-x="1860" d="M123 686q0 181 71 316.5t198.5 226t304 135.5t386.5 45q99 0 185.5 -9t164.5 -26.5t151 -41.5t145 -54v-334q-57 31 -120 61.5t-139 55t-167 40t-205 15.5q-175 0 -290.5 -36t-184.5 -96t-97 -137.5t-28 -160.5q0 -55 12 -108.5t40 -101t73 -87.5t112 -69t156.5 -45.5 t206.5 -16.5q114 0 205 14.5t167 38.5t139 54.5t120 62.5v-334q-72 -30 -145 -54t-151 -41.5t-164.5 -26.5t-185.5 -9q-210 0 -386.5 45t-304 135.5t-198.5 226t-71 316.5zM711 -302q45 -20 103 -34.5t120 -14.5q31 0 58.5 3.5t47 10.5t31 18t11.5 26q0 18 -13.5 28.5 t-33.5 16.5t-42 8t-40 2q-26 0 -54 -3t-51 -9l96 251h172l-38 -98q43 0 92 -7.5t89.5 -29.5t67.5 -61t27 -103t-31.5 -107t-82.5 -69.5t-114 -37.5t-126 -11q-56 0 -100.5 3t-79 7t-61.5 8.5t-48 8.5v194z" />
<glyph unicode="&#xc8;" horiz-adv-x="1763" d="M215 0v1374h1391v-293h-1010v-227h958v-293h-958v-268h1024v-293h-1405zM503 1687l131 264l482 -280l-90 -170z" />
<glyph unicode="&#xc9;" horiz-adv-x="1763" d="M215 0v1374h1391v-293h-1010v-227h958v-293h-958v-268h1024v-293h-1405zM689 1671l481 280l131 -264l-522 -186z" />
<glyph unicode="&#xca;" horiz-adv-x="1763" d="M215 0v1374h1391v-293h-1010v-227h958v-293h-958v-268h1024v-293h-1405zM451 1689l469 266l469 -266l-121 -188l-348 180l-348 -180z" />
<glyph unicode="&#xcb;" horiz-adv-x="1763" d="M215 0v1374h1391v-293h-1010v-227h958v-293h-958v-268h1024v-293h-1405zM519 1521v311h311v-311h-311zM981 1521v311h312v-311h-312z" />
<glyph unicode="&#xcc;" horiz-adv-x="801" d="M1 1687l131 264l482 -280l-90 -170zM215 0v1374h371v-1374h-371z" />
<glyph unicode="&#xcd;" horiz-adv-x="801" d="M186 1671l481 280l131 -264l-522 -186zM215 0v1374h371v-1374h-371z" />
<glyph unicode="&#xce;" horiz-adv-x="801" d="M-72 1689l469 266l469 -266l-121 -188l-348 180l-348 -180zM215 0v1374h371v-1374h-371z" />
<glyph unicode="&#xcf;" horiz-adv-x="801" d="M10 1521v311h311v-311h-311zM215 0v1374h371v-1374h-371zM472 1521v311h312v-311h-312z" />
<glyph unicode="&#xd0;" horiz-adv-x="2021" d="M10 569v267h205v538h870q113 0 217 -14.5t194.5 -46.5t164.5 -84.5t126.5 -129t81.5 -178.5t29 -233q0 -132 -29 -234.5t-81.5 -178.5t-126 -129t-163.5 -85t-194 -46.5t-217 -14.5h-872v569h-205zM586 299h461q131 0 222 23.5t147.5 72t82 121.5t25.5 172t-25.5 172 t-82 120.5t-147.5 71t-222 23.5h-461v-239h393v-267h-393v-270z" />
<glyph unicode="&#xd1;" horiz-adv-x="2130" d="M215 0v1374h403l928 -948v948h369v-1374h-402l-927 944v-944h-371zM688 1509q0 85 17.5 152.5t50.5 114.5t79.5 72t104.5 25q47 0 81.5 -19t64.5 -41.5t58.5 -41t64.5 -18.5q30 0 47.5 15t26.5 34.5t12 39.5t4 31h176q0 -96 -17 -165t-49.5 -113t-79 -65t-104.5 -21 q-54 0 -91 19t-66 41.5t-55 41.5t-58 19q-30 0 -47.5 -15t-26.5 -35.5t-12 -40.5t-4 -30h-177z" />
<glyph unicode="&#xd2;" d="M123 686q0 177 66 312.5t188 226.5t295.5 137.5t388.5 46.5t387.5 -46.5t293.5 -137.5t186 -226.5t65 -312.5t-65 -312.5t-186 -226.5t-293.5 -137.5t-387.5 -46.5t-388.5 46.5t-295.5 137.5t-188 226.5t-66 312.5zM500 686q0 -51 10.5 -103t35.5 -99.5t67 -88.5 t104 -71.5t147 -48t197 -17.5q167 0 275 38t170.5 99t87 137.5t24.5 153.5t-24.5 153.5t-87 137.5t-170.5 99t-275 38q-112 0 -197 -17.5t-147 -48.5t-104 -72.5t-67 -89t-35.5 -99t-10.5 -101.5zM665 1687l131 264l482 -280l-90 -170z" />
<glyph unicode="&#xd3;" d="M123 686q0 177 66 312.5t188 226.5t295.5 137.5t388.5 46.5t387.5 -46.5t293.5 -137.5t186 -226.5t65 -312.5t-65 -312.5t-186 -226.5t-293.5 -137.5t-387.5 -46.5t-388.5 46.5t-295.5 137.5t-188 226.5t-66 312.5zM500 686q0 -51 10.5 -103t35.5 -99.5t67 -88.5 t104 -71.5t147 -48t197 -17.5q167 0 275 38t170.5 99t87 137.5t24.5 153.5t-24.5 153.5t-87 137.5t-170.5 99t-275 38q-112 0 -197 -17.5t-147 -48.5t-104 -72.5t-67 -89t-35.5 -99t-10.5 -101.5zM850 1671l481 280l131 -264l-522 -186z" />
<glyph unicode="&#xd4;" d="M123 686q0 177 66 312.5t188 226.5t295.5 137.5t388.5 46.5t387.5 -46.5t293.5 -137.5t186 -226.5t65 -312.5t-65 -312.5t-186 -226.5t-293.5 -137.5t-387.5 -46.5t-388.5 46.5t-295.5 137.5t-188 226.5t-66 312.5zM500 686q0 -51 10.5 -103t35.5 -99.5t67 -88.5 t104 -71.5t147 -48t197 -17.5q167 0 275 38t170.5 99t87 137.5t24.5 153.5t-24.5 153.5t-87 137.5t-170.5 99t-275 38q-112 0 -197 -17.5t-147 -48.5t-104 -72.5t-67 -89t-35.5 -99t-10.5 -101.5zM592 1689l469 266l469 -266l-121 -188l-348 180l-348 -180z" />
<glyph unicode="&#xd5;" d="M123 686q0 177 66 312.5t188 226.5t295.5 137.5t388.5 46.5t387.5 -46.5t293.5 -137.5t186 -226.5t65 -312.5t-65 -312.5t-186 -226.5t-293.5 -137.5t-387.5 -46.5t-388.5 46.5t-295.5 137.5t-188 226.5t-66 312.5zM500 686q0 -51 10.5 -103t35.5 -99.5t67 -88.5 t104 -71.5t147 -48t197 -17.5q167 0 275 38t170.5 99t87 137.5t24.5 153.5t-24.5 153.5t-87 137.5t-170.5 99t-275 38q-112 0 -197 -17.5t-147 -48.5t-104 -72.5t-67 -89t-35.5 -99t-10.5 -101.5zM669 1509q0 85 17.5 152.5t50.5 114.5t79.5 72t104.5 25q47 0 81.5 -19 t64.5 -41.5t58.5 -41t64.5 -18.5q30 0 47.5 15t26.5 34.5t12 39.5t4 31h176q0 -96 -17 -165t-49.5 -113t-79 -65t-104.5 -21q-54 0 -91 19t-66 41.5t-55 41.5t-58 19q-30 0 -47.5 -15t-26.5 -35.5t-12 -40.5t-4 -30h-177z" />
<glyph unicode="&#xd6;" d="M123 686q0 177 66 312.5t188 226.5t295.5 137.5t388.5 46.5t387.5 -46.5t293.5 -137.5t186 -226.5t65 -312.5t-65 -312.5t-186 -226.5t-293.5 -137.5t-387.5 -46.5t-388.5 46.5t-295.5 137.5t-188 226.5t-66 312.5zM500 686q0 -51 10.5 -103t35.5 -99.5t67 -88.5 t104 -71.5t147 -48t197 -17.5q167 0 275 38t170.5 99t87 137.5t24.5 153.5t-24.5 153.5t-87 137.5t-170.5 99t-275 38q-112 0 -197 -17.5t-147 -48.5t-104 -72.5t-67 -89t-35.5 -99t-10.5 -101.5zM674 1521v311h311v-311h-311zM1136 1521v311h312v-311h-312z" />
<glyph unicode="&#xd7;" horiz-adv-x="1380" d="M147 350l336 336l-336 336l207 207l336 -336l336 336l207 -207l-336 -336l336 -336l-207 -207l-336 336l-336 -336z" />
<glyph unicode="&#xd8;" d="M123 686q0 177 66 312.5t188 226.5t295.5 137.5t388.5 46.5q223 0 397 -49l158 194h291l-232 -286q153 -90 235.5 -235.5t82.5 -346.5q0 -177 -65 -312.5t-186 -226.5t-293.5 -137.5t-387.5 -46.5q-113 0 -213.5 12.5t-190.5 36.5l-157 -194h-293l233 286 q-152 91 -234.5 236t-82.5 346zM500 686q0 -44 7.5 -88t25 -86t46 -80.5t70.5 -69.5l596 736q-40 8 -86 12t-98 4q-112 0 -197 -17.5t-147 -48.5t-104 -72.5t-67 -89t-35.5 -99t-10.5 -101.5zM870 274q42 -8 89.5 -12t101.5 -4q167 0 275 38t170.5 99t87 137.5t24.5 153.5 q0 44 -7.5 88t-25.5 86t-47 80t-72 70z" />
<glyph unicode="&#xd9;" horiz-adv-x="2042" d="M205 463v911h370v-778q0 -69 17.5 -130.5t66 -107.5t136 -73t227.5 -27q139 0 226 27t135.5 73t65.5 107.5t17 130.5v778h371v-911q0 -103 -51 -194t-153 -159t-254.5 -107.5t-356.5 -39.5t-357.5 39.5t-255.5 107.5t-153 159t-51 194zM626 1687l131 264l482 -280 l-90 -170z" />
<glyph unicode="&#xda;" horiz-adv-x="2042" d="M205 463v911h370v-778q0 -69 17.5 -130.5t66 -107.5t136 -73t227.5 -27q139 0 226 27t135.5 73t65.5 107.5t17 130.5v778h371v-911q0 -103 -51 -194t-153 -159t-254.5 -107.5t-356.5 -39.5t-357.5 39.5t-255.5 107.5t-153 159t-51 194zM811 1671l481 280l131 -264 l-522 -186z" />
<glyph unicode="&#xdb;" horiz-adv-x="2042" d="M205 463v911h370v-778q0 -69 17.5 -130.5t66 -107.5t136 -73t227.5 -27q139 0 226 27t135.5 73t65.5 107.5t17 130.5v778h371v-911q0 -103 -51 -194t-153 -159t-254.5 -107.5t-356.5 -39.5t-357.5 39.5t-255.5 107.5t-153 159t-51 194zM553 1689l469 266l469 -266 l-121 -188l-348 180l-348 -180z" />
<glyph unicode="&#xdc;" horiz-adv-x="2042" d="M205 463v911h370v-778q0 -69 17.5 -130.5t66 -107.5t136 -73t227.5 -27q139 0 226 27t135.5 73t65.5 107.5t17 130.5v778h371v-911q0 -103 -51 -194t-153 -159t-254.5 -107.5t-356.5 -39.5t-357.5 39.5t-255.5 107.5t-153 159t-51 194zM635 1521v311h311v-311h-311z M1097 1521v311h312v-311h-312z" />
<glyph unicode="&#xdd;" horiz-adv-x="1784" d="M41 1374h416l436 -553l434 553h416l-666 -813v-561h-370v561zM682 1671l481 280l131 -264l-522 -186z" />
<glyph unicode="&#xde;" horiz-adv-x="1882" d="M215 0v1372h371v-194h616q152 0 258 -35t172.5 -97t96.5 -148t30 -189t-30 -189.5t-96.5 -149t-172.5 -97.5t-258 -35h-616v-238h-371zM586 530h536q73 0 123 8.5t81 29t44.5 53.5t13.5 81t-13.5 83t-44.5 57t-81 32.5t-123 10.5h-536v-355z" />
<glyph unicode="&#xdf;" horiz-adv-x="2032" d="M215 0v864q0 125 56 227t162.5 174t260 111t348.5 39q198 0 341 -32.5t235.5 -87.5t136 -127.5t43.5 -151.5q0 -62 -27 -109.5t-67.5 -81t-88.5 -55t-89 -31.5q88 -11 160 -37t123.5 -68t79.5 -101t28 -134q0 -93 -44 -170.5t-131 -132.5t-216.5 -85.5t-300.5 -30.5 q-75 0 -150.5 5t-140 12.5t-113.5 15t-73 12.5v321q34 -13 81 -27t105.5 -26t127 -19.5t146.5 -7.5q95 0 159 15t102.5 39t54.5 54.5t16 61.5q0 41 -19.5 70t-65.5 48t-121.5 27.5t-186.5 8.5h-320v280h306q70 0 124 4.5t91 17t56 36.5t19 63q0 29 -22 54t-67 43.5t-113 29 t-160 10.5q-105 0 -192 -10.5t-150 -42t-98 -88t-35 -149.5v-838h-371z" />
<glyph unicode="&#xe0;" horiz-adv-x="1960" d="M113 371q0 139 76 231.5t232 151.5t394.5 91t564.5 50v29q0 34 -18 67.5t-65.5 59t-130 41.5t-210.5 16q-101 0 -199.5 -10.5t-190 -28.5t-173.5 -42t-149 -50v330q70 18 157 35t181 29.5t190 20t184 7.5q173 0 319 -28.5t251.5 -88.5t165 -152t59.5 -219v-911h-371v135 q-71 -39 -152.5 -69t-169.5 -51t-181.5 -31.5t-188.5 -10.5q-111 0 -214.5 21t-183.5 68t-128.5 123t-48.5 186zM487 387q0 -24 13 -46.5t45.5 -39.5t86.5 -27t136 -10q91 0 178 14t165 38.5t146.5 58t122.5 71.5v181q-214 -8 -363.5 -23t-248.5 -35t-155.5 -43t-84.5 -47 t-34.5 -48t-6.5 -44zM563 1687l131 264l482 -280l-90 -170z" />
<glyph unicode="&#xe1;" horiz-adv-x="1960" d="M113 371q0 139 76 231.5t232 151.5t394.5 91t564.5 50v29q0 34 -18 67.5t-65.5 59t-130 41.5t-210.5 16q-101 0 -199.5 -10.5t-190 -28.5t-173.5 -42t-149 -50v330q70 18 157 35t181 29.5t190 20t184 7.5q173 0 319 -28.5t251.5 -88.5t165 -152t59.5 -219v-911h-371v135 q-71 -39 -152.5 -69t-169.5 -51t-181.5 -31.5t-188.5 -10.5q-111 0 -214.5 21t-183.5 68t-128.5 123t-48.5 186zM487 387q0 -24 13 -46.5t45.5 -39.5t86.5 -27t136 -10q91 0 178 14t165 38.5t146.5 58t122.5 71.5v181q-214 -8 -363.5 -23t-248.5 -35t-155.5 -43t-84.5 -47 t-34.5 -48t-6.5 -44zM748 1671l481 280l131 -264l-522 -186z" />
<glyph unicode="&#xe2;" horiz-adv-x="1960" d="M113 371q0 139 76 231.5t232 151.5t394.5 91t564.5 50v29q0 34 -18 67.5t-65.5 59t-130 41.5t-210.5 16q-101 0 -199.5 -10.5t-190 -28.5t-173.5 -42t-149 -50v330q70 18 157 35t181 29.5t190 20t184 7.5q173 0 319 -28.5t251.5 -88.5t165 -152t59.5 -219v-911h-371v135 q-71 -39 -152.5 -69t-169.5 -51t-181.5 -31.5t-188.5 -10.5q-111 0 -214.5 21t-183.5 68t-128.5 123t-48.5 186zM487 387q0 -24 13 -46.5t45.5 -39.5t86.5 -27t136 -10q91 0 178 14t165 38.5t146.5 58t122.5 71.5v181q-214 -8 -363.5 -23t-248.5 -35t-155.5 -43t-84.5 -47 t-34.5 -48t-6.5 -44zM510 1689l469 266l469 -266l-121 -188l-348 180l-348 -180z" />
<glyph unicode="&#xe3;" horiz-adv-x="1960" d="M113 371q0 139 76 231.5t232 151.5t394.5 91t564.5 50v29q0 34 -18 67.5t-65.5 59t-130 41.5t-210.5 16q-101 0 -199.5 -10.5t-190 -28.5t-173.5 -42t-149 -50v330q70 18 157 35t181 29.5t190 20t184 7.5q173 0 319 -28.5t251.5 -88.5t165 -152t59.5 -219v-911h-371v135 q-71 -39 -152.5 -69t-169.5 -51t-181.5 -31.5t-188.5 -10.5q-111 0 -214.5 21t-183.5 68t-128.5 123t-48.5 186zM487 387q0 -24 13 -46.5t45.5 -39.5t86.5 -27t136 -10q91 0 178 14t165 38.5t146.5 58t122.5 71.5v181q-214 -8 -363.5 -23t-248.5 -35t-155.5 -43t-84.5 -47 t-34.5 -48t-6.5 -44zM587 1509q0 85 17.5 152.5t50.5 114.5t79.5 72t104.5 25q47 0 81.5 -19t64.5 -41.5t58.5 -41t64.5 -18.5q30 0 47.5 15t26.5 34.5t12 39.5t4 31h176q0 -96 -17 -165t-49.5 -113t-79 -65t-104.5 -21q-54 0 -91 19t-66 41.5t-55 41.5t-58 19 q-30 0 -47.5 -15t-26.5 -35.5t-12 -40.5t-4 -30h-177z" />
<glyph unicode="&#xe4;" horiz-adv-x="1960" d="M113 371q0 139 76 231.5t232 151.5t394.5 91t564.5 50v29q0 34 -18 67.5t-65.5 59t-130 41.5t-210.5 16q-101 0 -199.5 -10.5t-190 -28.5t-173.5 -42t-149 -50v330q70 18 157 35t181 29.5t190 20t184 7.5q173 0 319 -28.5t251.5 -88.5t165 -152t59.5 -219v-911h-371v135 q-71 -39 -152.5 -69t-169.5 -51t-181.5 -31.5t-188.5 -10.5q-111 0 -214.5 21t-183.5 68t-128.5 123t-48.5 186zM487 387q0 -24 13 -46.5t45.5 -39.5t86.5 -27t136 -10q91 0 178 14t165 38.5t146.5 58t122.5 71.5v181q-214 -8 -363.5 -23t-248.5 -35t-155.5 -43t-84.5 -47 t-34.5 -48t-6.5 -44zM592 1521v311h311v-311h-311zM1054 1521v311h312v-311h-312z" />
<glyph unicode="&#xe5;" horiz-adv-x="1960" d="M113 371q0 139 76 231.5t232 151.5t394.5 91t564.5 50v29q0 34 -18 67.5t-65.5 59t-130 41.5t-210.5 16q-101 0 -199.5 -10.5t-190 -28.5t-173.5 -42t-149 -50v330q70 18 157 35t181 29.5t190 20t184 7.5q173 0 319 -28.5t251.5 -88.5t165 -152t59.5 -219v-911h-371v135 q-71 -39 -152.5 -69t-169.5 -51t-181.5 -31.5t-188.5 -10.5q-111 0 -214.5 21t-183.5 68t-128.5 123t-48.5 186zM487 387q0 -24 13 -46.5t45.5 -39.5t86.5 -27t136 -10q91 0 178 14t165 38.5t146.5 58t122.5 71.5v181q-214 -8 -363.5 -23t-248.5 -35t-155.5 -43t-84.5 -47 t-34.5 -48t-6.5 -44zM676 1716q0 49 19.5 92.5t57.5 76t94.5 51.5t131.5 19q74 0 130.5 -19t95 -51.5t58 -76t19.5 -92.5t-19.5 -92.5t-58 -76.5t-95 -52t-130.5 -19q-75 0 -131.5 19t-94.5 52t-57.5 76.5t-19.5 92.5zM880 1716q0 -41 25.5 -69t73.5 -28t72 28t24 69 q0 40 -24 68t-72 28t-73.5 -28t-25.5 -68z" />
<glyph unicode="&#xe6;" horiz-adv-x="3240" d="M113 371q0 139 76 231.5t232 151.5t394.5 91t564.5 50v29q0 34 -18 67.5t-65.5 59t-130 41.5t-210.5 16q-101 0 -199.5 -10.5t-190 -28.5t-173.5 -42t-149 -50v330q70 18 157 35t181 29.5t190 20t184 7.5q229 0 401.5 -50.5t268.5 -156.5q115 102 277.5 159.5t369.5 57.5 q187 0 342.5 -50.5t267 -149.5t173 -244t61.5 -334v-92h-1354q18 -65 59.5 -119t112.5 -92t174.5 -59t247.5 -21q102 0 200.5 12.5t183.5 33t153 45.5t110 50v-321q-169 -56 -337 -80.5t-345 -24.5q-260 0 -447 62.5t-302 183.5q-78 -42 -164.5 -84t-189 -75.5t-226 -55 t-274.5 -21.5q-122 0 -232 21t-193 68t-132 123t-49 186zM487 387q0 -24 13 -46.5t45.5 -39.5t86.5 -27t136 -10q91 0 183 14.5t176.5 40t158 59.5t127.5 73q-8 27 -18 69t-15 107q-214 -8 -363.5 -23t-248.5 -35t-155.5 -43t-84.5 -47t-34.5 -48t-6.5 -44zM1763 811h985 q-5 51 -30.5 105.5t-80 98.5t-144 72.5t-222.5 28.5q-125 0 -216 -31t-152.5 -77t-95.5 -99t-44 -98z" />
<glyph unicode="&#xe7;" horiz-adv-x="1860" d="M123 686q0 181 71 316.5t198.5 226t304 135.5t386.5 45q99 0 185.5 -9t164.5 -26.5t151 -41.5t145 -54v-334q-57 31 -120 61.5t-139 55t-167 40t-205 15.5q-175 0 -290.5 -36t-184.5 -96t-97 -137.5t-28 -160.5q0 -55 12 -108.5t40 -101t73 -87.5t112 -69t156.5 -45.5 t206.5 -16.5q114 0 205 14.5t167 38.5t139 54.5t120 62.5v-334q-72 -30 -145 -54t-151 -41.5t-164.5 -26.5t-185.5 -9q-210 0 -386.5 45t-304 135.5t-198.5 226t-71 316.5zM711 -302q45 -20 103 -34.5t120 -14.5q31 0 58.5 3.5t47 10.5t31 18t11.5 26q0 18 -13.5 28.5 t-33.5 16.5t-42 8t-40 2q-26 0 -54 -3t-51 -9l96 251h172l-38 -98q43 0 92 -7.5t89.5 -29.5t67.5 -61t27 -103t-31.5 -107t-82.5 -69.5t-114 -37.5t-126 -11q-56 0 -100.5 3t-79 7t-61.5 8.5t-48 8.5v194z" />
<glyph unicode="&#xe8;" horiz-adv-x="1982" d="M123 678q0 156 63.5 289.5t180 232t281.5 154t368 55.5q187 0 342.5 -50.5t267 -149.5t173 -244t61.5 -334v-92h-1354q18 -65 59.5 -119t112.5 -92t174.5 -59t247.5 -21q102 0 200 12.5t183 33t153.5 45.5t110.5 50v-321q-169 -56 -337.5 -80.5t-344.5 -24.5 q-225 0 -400.5 48.5t-295.5 140.5t-183 225t-63 301zM506 811h985q-5 51 -30.5 105.5t-80.5 98.5t-144 72.5t-222 28.5q-125 0 -216 -31t-152.5 -77t-95.5 -99t-44 -98zM610 1687l131 264l482 -280l-90 -170z" />
<glyph unicode="&#xe9;" horiz-adv-x="1982" d="M123 678q0 156 63.5 289.5t180 232t281.5 154t368 55.5q187 0 342.5 -50.5t267 -149.5t173 -244t61.5 -334v-92h-1354q18 -65 59.5 -119t112.5 -92t174.5 -59t247.5 -21q102 0 200 12.5t183 33t153.5 45.5t110.5 50v-321q-169 -56 -337.5 -80.5t-344.5 -24.5 q-225 0 -400.5 48.5t-295.5 140.5t-183 225t-63 301zM506 811h985q-5 51 -30.5 105.5t-80.5 98.5t-144 72.5t-222 28.5q-125 0 -216 -31t-152.5 -77t-95.5 -99t-44 -98zM795 1671l481 280l131 -264l-522 -186z" />
<glyph unicode="&#xea;" horiz-adv-x="1982" d="M123 678q0 156 63.5 289.5t180 232t281.5 154t368 55.5q187 0 342.5 -50.5t267 -149.5t173 -244t61.5 -334v-92h-1354q18 -65 59.5 -119t112.5 -92t174.5 -59t247.5 -21q102 0 200 12.5t183 33t153.5 45.5t110.5 50v-321q-169 -56 -337.5 -80.5t-344.5 -24.5 q-225 0 -400.5 48.5t-295.5 140.5t-183 225t-63 301zM506 811h985q-5 51 -30.5 105.5t-80.5 98.5t-144 72.5t-222 28.5q-125 0 -216 -31t-152.5 -77t-95.5 -99t-44 -98zM537 1689l469 266l469 -266l-121 -188l-348 180l-348 -180z" />
<glyph unicode="&#xeb;" horiz-adv-x="1982" d="M123 678q0 156 63.5 289.5t180 232t281.5 154t368 55.5q187 0 342.5 -50.5t267 -149.5t173 -244t61.5 -334v-92h-1354q18 -65 59.5 -119t112.5 -92t174.5 -59t247.5 -21q102 0 200 12.5t183 33t153.5 45.5t110.5 50v-321q-169 -56 -337.5 -80.5t-344.5 -24.5 q-225 0 -400.5 48.5t-295.5 140.5t-183 225t-63 301zM506 811h985q-5 51 -30.5 105.5t-80.5 98.5t-144 72.5t-222 28.5q-125 0 -216 -31t-152.5 -77t-95.5 -99t-44 -98zM619 1521v311h311v-311h-311zM1081 1521v311h312v-311h-312z" />
<glyph unicode="&#xec;" horiz-adv-x="801" d="M3 1700l131 264l482 -280l-90 -170zM215 0v1374h371v-1374h-371z" />
<glyph unicode="&#xed;" horiz-adv-x="801" d="M188 1671l481 280l131 -264l-522 -186zM215 0v1374h371v-1374h-371z" />
<glyph unicode="&#xee;" horiz-adv-x="801" d="M-70 1689l469 266l469 -266l-121 -188l-348 180l-348 -180zM215 0v1374h371v-1374h-371z" />
<glyph unicode="&#xef;" horiz-adv-x="801" d="M12 1521v311h311v-311h-311zM215 0v1374h371v-1374h-371zM474 1521v311h312v-311h-312z" />
<glyph unicode="&#xf0;" horiz-adv-x="2021" d="M10 569v267h205v538h870q113 0 217 -14.5t194.5 -46.5t164.5 -84.5t126.5 -129t81.5 -178.5t29 -233q0 -132 -29 -234.5t-81.5 -178.5t-126 -129t-163.5 -85t-194 -46.5t-217 -14.5h-872v569h-205zM586 299h461q131 0 222 23.5t147.5 72t82 121.5t25.5 172t-25.5 172 t-82 120.5t-147.5 71t-222 23.5h-461v-239h393v-267h-393v-270z" />
<glyph unicode="&#xf1;" horiz-adv-x="2103" d="M215 0v1374h371v-188q70 40 149 79.5t168 71.5t189 52t211 20q139 0 248.5 -33.5t185.5 -95t116.5 -149t40.5 -195.5v-936h-370v770q0 77 -13 139.5t-48.5 107t-99 69t-163.5 24.5q-76 0 -159.5 -20.5t-165.5 -54.5t-156.5 -79t-132.5 -94v-862h-371zM733 1509 q0 85 17.5 152.5t50.5 114.5t79.5 72t104.5 25q47 0 81.5 -19t64.5 -41.5t58.5 -41t64.5 -18.5q30 0 47.5 15t26.5 34.5t12 39.5t4 31h176q0 -96 -17 -165t-49.5 -113t-79 -65t-104.5 -21q-54 0 -91 19t-66 41.5t-55 41.5t-58 19q-30 0 -47.5 -15t-26.5 -35.5t-12 -40.5 t-4 -30h-177z" />
<glyph unicode="&#xf2;" d="M123 686q0 177 66 312.5t188 226.5t295.5 137.5t388.5 46.5t387.5 -46.5t293.5 -137.5t186 -226.5t65 -312.5t-65 -312.5t-186 -226.5t-293.5 -137.5t-387.5 -46.5t-388.5 46.5t-295.5 137.5t-188 226.5t-66 312.5zM500 686q0 -51 10.5 -103t35.5 -99.5t67 -88.5 t104 -71.5t147 -48t197 -17.5q167 0 275 38t170.5 99t87 137.5t24.5 153.5t-24.5 153.5t-87 137.5t-170.5 99t-275 38q-112 0 -197 -17.5t-147 -48.5t-104 -72.5t-67 -89t-35.5 -99t-10.5 -101.5zM665 1687l131 264l482 -280l-90 -170z" />
<glyph unicode="&#xf3;" d="M123 686q0 177 66 312.5t188 226.5t295.5 137.5t388.5 46.5t387.5 -46.5t293.5 -137.5t186 -226.5t65 -312.5t-65 -312.5t-186 -226.5t-293.5 -137.5t-387.5 -46.5t-388.5 46.5t-295.5 137.5t-188 226.5t-66 312.5zM500 686q0 -51 10.5 -103t35.5 -99.5t67 -88.5 t104 -71.5t147 -48t197 -17.5q167 0 275 38t170.5 99t87 137.5t24.5 153.5t-24.5 153.5t-87 137.5t-170.5 99t-275 38q-112 0 -197 -17.5t-147 -48.5t-104 -72.5t-67 -89t-35.5 -99t-10.5 -101.5zM850 1671l481 280l131 -264l-522 -186z" />
<glyph unicode="&#xf4;" d="M123 686q0 177 66 312.5t188 226.5t295.5 137.5t388.5 46.5t387.5 -46.5t293.5 -137.5t186 -226.5t65 -312.5t-65 -312.5t-186 -226.5t-293.5 -137.5t-387.5 -46.5t-388.5 46.5t-295.5 137.5t-188 226.5t-66 312.5zM500 686q0 -51 10.5 -103t35.5 -99.5t67 -88.5 t104 -71.5t147 -48t197 -17.5q167 0 275 38t170.5 99t87 137.5t24.5 153.5t-24.5 153.5t-87 137.5t-170.5 99t-275 38q-112 0 -197 -17.5t-147 -48.5t-104 -72.5t-67 -89t-35.5 -99t-10.5 -101.5zM592 1689l469 266l469 -266l-121 -188l-348 180l-348 -180z" />
<glyph unicode="&#xf5;" d="M123 686q0 177 66 312.5t188 226.5t295.5 137.5t388.5 46.5t387.5 -46.5t293.5 -137.5t186 -226.5t65 -312.5t-65 -312.5t-186 -226.5t-293.5 -137.5t-387.5 -46.5t-388.5 46.5t-295.5 137.5t-188 226.5t-66 312.5zM500 686q0 -51 10.5 -103t35.5 -99.5t67 -88.5 t104 -71.5t147 -48t197 -17.5q167 0 275 38t170.5 99t87 137.5t24.5 153.5t-24.5 153.5t-87 137.5t-170.5 99t-275 38q-112 0 -197 -17.5t-147 -48.5t-104 -72.5t-67 -89t-35.5 -99t-10.5 -101.5zM669 1509q0 85 17.5 152.5t50.5 114.5t79.5 72t104.5 25q47 0 81.5 -19 t64.5 -41.5t58.5 -41t64.5 -18.5q30 0 47.5 15t26.5 34.5t12 39.5t4 31h176q0 -96 -17 -165t-49.5 -113t-79 -65t-104.5 -21q-54 0 -91 19t-66 41.5t-55 41.5t-58 19q-30 0 -47.5 -15t-26.5 -35.5t-12 -40.5t-4 -30h-177z" />
<glyph unicode="&#xf6;" d="M123 686q0 177 66 312.5t188 226.5t295.5 137.5t388.5 46.5t387.5 -46.5t293.5 -137.5t186 -226.5t65 -312.5t-65 -312.5t-186 -226.5t-293.5 -137.5t-387.5 -46.5t-388.5 46.5t-295.5 137.5t-188 226.5t-66 312.5zM500 686q0 -51 10.5 -103t35.5 -99.5t67 -88.5 t104 -71.5t147 -48t197 -17.5q167 0 275 38t170.5 99t87 137.5t24.5 153.5t-24.5 153.5t-87 137.5t-170.5 99t-275 38q-112 0 -197 -17.5t-147 -48.5t-104 -72.5t-67 -89t-35.5 -99t-10.5 -101.5zM674 1521v311h311v-311h-311zM1136 1521v311h312v-311h-312z" />
<glyph unicode="&#xf7;" horiz-adv-x="1382" d="M152 539v292h1079v-292h-1079zM545 125v264h293v-264h-293zM545 981v264h293v-264h-293z" />
<glyph unicode="&#xf8;" d="M123 686q0 177 66 312.5t188 226.5t295.5 137.5t388.5 46.5q223 0 397 -49l158 194h291l-232 -286q153 -90 235.5 -235.5t82.5 -346.5q0 -177 -65 -312.5t-186 -226.5t-293.5 -137.5t-387.5 -46.5q-113 0 -213.5 12.5t-190.5 36.5l-157 -194h-293l233 286 q-152 91 -234.5 236t-82.5 346zM500 686q0 -44 7.5 -88t25 -86t46 -80.5t70.5 -69.5l596 736q-40 8 -86 12t-98 4q-112 0 -197 -17.5t-147 -48.5t-104 -72.5t-67 -89t-35.5 -99t-10.5 -101.5zM870 274q42 -8 89.5 -12t101.5 -4q167 0 275 38t170.5 99t87 137.5t24.5 153.5 q0 44 -7.5 88t-25.5 86t-47 80t-72 70z" />
<glyph unicode="&#xf9;" horiz-adv-x="2103" d="M209 434v940h371v-774q0 -77 13 -139.5t48 -107t98 -69t164 -24.5q76 0 159.5 21t165.5 56t156.5 80.5t133.5 94.5v862h370v-1374h-370v188q-70 -40 -149 -80.5t-168 -73t-189 -53t-211 -20.5q-139 0 -249 33.5t-186 95t-116.5 149t-40.5 195.5zM655 1687l131 264 l482 -280l-90 -170z" />
<glyph unicode="&#xfa;" horiz-adv-x="2103" d="M209 434v940h371v-774q0 -77 13 -139.5t48 -107t98 -69t164 -24.5q76 0 159.5 21t165.5 56t156.5 80.5t133.5 94.5v862h370v-1374h-370v188q-70 -40 -149 -80.5t-168 -73t-189 -53t-211 -20.5q-139 0 -249 33.5t-186 95t-116.5 149t-40.5 195.5zM840 1671l481 280 l131 -264l-522 -186z" />
<glyph unicode="&#xfb;" horiz-adv-x="2103" d="M209 434v940h371v-774q0 -77 13 -139.5t48 -107t98 -69t164 -24.5q76 0 159.5 21t165.5 56t156.5 80.5t133.5 94.5v862h370v-1374h-370v188q-70 -40 -149 -80.5t-168 -73t-189 -53t-211 -20.5q-139 0 -249 33.5t-186 95t-116.5 149t-40.5 195.5zM582 1689l469 266 l469 -266l-121 -188l-348 180l-348 -180z" />
<glyph unicode="&#xfc;" horiz-adv-x="2103" d="M209 434v940h371v-774q0 -77 13 -139.5t48 -107t98 -69t164 -24.5q76 0 159.5 21t165.5 56t156.5 80.5t133.5 94.5v862h370v-1374h-370v188q-70 -40 -149 -80.5t-168 -73t-189 -53t-211 -20.5q-139 0 -249 33.5t-186 95t-116.5 149t-40.5 195.5zM664 1521v311h311v-311 h-311zM1126 1521v311h312v-311h-312z" />
<glyph unicode="&#xfd;" horiz-adv-x="2062" d="M184 61v326q64 -27 142.5 -51t170.5 -42.5t197.5 -29t223.5 -10.5q111 0 195.5 13t146.5 35t103 50.5t66 59t35.5 60.5t10.5 56v121q-102 -75 -243 -123.5t-321 -48.5q-209 0 -348.5 40.5t-223.5 117t-119.5 186.5t-35.5 248v305h373v-268q0 -81 21.5 -144t68 -105.5 t120.5 -64.5t179 -22q89 0 168.5 22t146.5 58t121 82t93 94v348h372v-846q0 -134 -66 -239t-187.5 -177.5t-294 -110.5t-386.5 -38q-94 0 -197.5 7.5t-202 21t-184.5 31t-145 38.5zM803 1671l481 280l131 -264l-522 -186z" />
<glyph unicode="&#xfe;" horiz-adv-x="1882" d="M215 0v1372h371v-194h616q152 0 258 -35t172.5 -97t96.5 -148t30 -189t-30 -189.5t-96.5 -149t-172.5 -97.5t-258 -35h-616v-238h-371zM586 530h536q73 0 123 8.5t81 29t44.5 53.5t13.5 81t-13.5 83t-44.5 57t-81 32.5t-123 10.5h-536v-355z" />
<glyph unicode="&#xff;" horiz-adv-x="2062" d="M184 61v326q64 -27 142.5 -51t170.5 -42.5t197.5 -29t223.5 -10.5q111 0 195.5 13t146.5 35t103 50.5t66 59t35.5 60.5t10.5 56v121q-102 -75 -243 -123.5t-321 -48.5q-209 0 -348.5 40.5t-223.5 117t-119.5 186.5t-35.5 248v305h373v-268q0 -81 21.5 -144t68 -105.5 t120.5 -64.5t179 -22q89 0 168.5 22t146.5 58t121 82t93 94v348h372v-846q0 -134 -66 -239t-187.5 -177.5t-294 -110.5t-386.5 -38q-94 0 -197.5 7.5t-202 21t-184.5 31t-145 38.5zM627 1521v311h311v-311h-311zM1089 1521v311h312v-311h-312z" />
<glyph unicode="&#x152;" horiz-adv-x="3047" d="M123 686q0 125 37 227.5t101.5 183t153.5 139.5t193 97.5t219 57t232 18.5q62 0 118.5 -3.5t110 -8.5t105 -11t104.5 -12h1393v-293h-1010v-227h959v-293h-959v-268h1024v-293h-1407q-53 -5 -104.5 -11.5t-105 -12t-110 -9.5t-118.5 -4q-123 0 -240.5 18.5t-221.5 57 t-191 97t-150 139t-98 183t-35 228.5zM498 686q0 -115 45 -196.5t122 -133t178.5 -75t215.5 -23.5q125 0 236 16t202 37v750q-91 22 -202 37.5t-236 15.5q-106 0 -207 -24.5t-179.5 -76t-126.5 -132.5t-48 -195z" />
<glyph unicode="&#x153;" horiz-adv-x="3478" d="M123 686q0 177 66 312.5t188 226.5t295.5 137.5t388.5 46.5q260 0 450 -66.5t306 -197.5q56 61 128.5 109.5t160 83t189.5 53t216 18.5q187 0 342.5 -50.5t267 -149.5t173 -244t61.5 -334v-92h-1354q18 -65 59.5 -119t112.5 -92t174.5 -59t247.5 -21q102 0 200 12.5 t183 33t153.5 45.5t110.5 50v-321q-169 -56 -337 -80.5t-345 -24.5q-263 0 -451.5 64t-304.5 188q-115 -125 -302 -188.5t-441 -63.5q-215 0 -388.5 46.5t-295.5 137.5t-188 226.5t-66 312.5zM500 686q0 -51 10.5 -103t35.5 -99.5t67 -88.5t104 -71.5t147 -48t197 -17.5 q167 0 275 38t170.5 99t87 137.5t24.5 153.5t-24.5 153.5t-87 137.5t-170.5 99t-275 38q-112 0 -197 -17.5t-147 -48.5t-104 -72.5t-67 -89t-35.5 -99t-10.5 -101.5zM2001 811h985q-5 51 -30.5 105.5t-80.5 98.5t-144 72.5t-222 28.5q-125 0 -216 -31t-152.5 -77t-95.5 -99 t-44 -98z" />
<glyph unicode="&#x178;" horiz-adv-x="1784" d="M41 1374h416l436 -553l434 553h416l-666 -813v-561h-370v561zM506 1521v311h311v-311h-311zM968 1521v311h312v-311h-312z" />
<glyph unicode="&#x2c6;" horiz-adv-x="1081" d="M72 1327l469 266l469 -266l-121 -188l-348 180l-348 -180z" />
<glyph unicode="&#x2dc;" horiz-adv-x="1081" d="M147 1147q0 85 17.5 152.5t50.5 114.5t79.5 72t104.5 25q47 0 81.5 -19t64.5 -41.5t58.5 -41t64.5 -18.5q30 0 47.5 15t26.5 34.5t12 39.5t4 31h176q0 -96 -17 -165t-49.5 -113t-79 -65t-104.5 -21q-54 0 -91 19t-66 41.5t-55 41.5t-58 19q-30 0 -47.5 -15t-26.5 -35.5 t-12 -40.5t-4 -30h-177z" />
<glyph unicode="&#x2000;" horiz-adv-x="982" />
<glyph unicode="&#x2001;" horiz-adv-x="1964" />
<glyph unicode="&#x2002;" horiz-adv-x="982" />
<glyph unicode="&#x2003;" horiz-adv-x="1964" />
<glyph unicode="&#x2004;" horiz-adv-x="654" />
<glyph unicode="&#x2005;" horiz-adv-x="491" />
<glyph unicode="&#x2006;" horiz-adv-x="327" />
<glyph unicode="&#x2007;" horiz-adv-x="327" />
<glyph unicode="&#x2008;" horiz-adv-x="245" />
<glyph unicode="&#x2009;" horiz-adv-x="392" />
<glyph unicode="&#x200a;" horiz-adv-x="109" />
<glyph unicode="&#x2010;" horiz-adv-x="1106" d="M143 522v328h820v-328h-820z" />
<glyph unicode="&#x2011;" horiz-adv-x="1106" d="M143 522v328h820v-328h-820z" />
<glyph unicode="&#x2012;" horiz-adv-x="1106" d="M143 522v328h820v-328h-820z" />
<glyph unicode="&#x2013;" horiz-adv-x="1024" d="M102 549v274h820v-274h-820z" />
<glyph unicode="&#x2014;" horiz-adv-x="2048" d="M0 549v274h2048v-274h-2048z" />
<glyph unicode="&#x2018;" horiz-adv-x="522" d="M51 870l156 504h264l-92 -504h-328z" />
<glyph unicode="&#x2019;" horiz-adv-x="522" d="M51 870l92 504h328l-156 -504h-264z" />
<glyph unicode="&#x201a;" horiz-adv-x="522" d="M51 -184l92 503h328l-156 -503h-264z" />
<glyph unicode="&#x201c;" horiz-adv-x="973" d="M51 870l156 504h264l-92 -504h-328zM502 870l155 504h265l-93 -504h-327z" />
<glyph unicode="&#x201d;" horiz-adv-x="973" d="M51 870l92 504h328l-156 -504h-264zM502 870l92 504h328l-156 -504h-264z" />
<glyph unicode="&#x201e;" horiz-adv-x="973" d="M51 -184l92 503h328l-156 -503h-264zM502 -184l92 503h328l-156 -503h-264z" />
<glyph unicode="&#x2022;" horiz-adv-x="874" d="M143 705q0 60 23 113.5t62.5 93.5t93 63.5t114.5 23.5t114.5 -23.5t93.5 -63.5t63.5 -93.5t23.5 -113.5q0 -61 -23.5 -114.5t-63.5 -93t-93.5 -62.5t-114.5 -23t-114.5 23t-93 62.5t-62.5 93t-23 114.5z" />
<glyph unicode="&#x2026;" horiz-adv-x="1751" d="M102 0v360h379v-360h-379zM686 0v360h379v-360h-379zM1270 0v360h379v-360h-379z" />
<glyph unicode="&#x202f;" horiz-adv-x="392" />
<glyph unicode="&#x2039;" horiz-adv-x="676" d="M61 641v90l347 377l196 -182l-237 -240l237 -240l-196 -182z" />
<glyph unicode="&#x203a;" horiz-adv-x="676" d="M72 446l237 240l-237 240l196 182l346 -377v-90l-346 -377z" />
<glyph unicode="&#x205f;" horiz-adv-x="491" />
<glyph unicode="&#x20ac;" horiz-adv-x="1874" d="M51 444l64 191h143q-2 12 -2 24.5v26.5v35t2 35h-203l64 190h182q42 107 117 191t178.5 142.5t233.5 89t280 30.5q183 0 341 -37t280 -92v-357q-48 47 -114.5 84t-143 62.5t-158.5 39t-160 13.5q-84 0 -152.5 -12t-123 -34t-96.5 -52.5t-72 -67.5h606l-64 -190h-622 q-2 -17 -3 -35t-1 -35v-26.5t2 -24.5h581l-63 -191h-447q29 -41 71 -74.5t98.5 -58t127.5 -38t158 -13.5q78 0 160 14t158.5 40t143 63t114.5 84v-357q-61 -27 -135 -51t-155 -42t-165.5 -28t-165.5 -10q-150 0 -281.5 30t-237.5 89.5t-182.5 147.5t-115.5 204h-242z" />
<glyph unicode="&#x2122;" horiz-adv-x="1798" d="M51 1210v164h651v-164h-239v-432h-193v432h-219zM774 778v596h240l180 -397l180 397h240v-596h-193v361l-166 -361h-122l-166 361v-361h-193z" />
<glyph unicode="&#x25fc;" horiz-adv-x="1375" d="M0 0v1375h1375v-1375h-1375z" />
<glyph unicode="&#xfb01;" horiz-adv-x="2476" d="M215 0v924q0 106 31.5 190t105.5 141.5t196 88t304 30.5h819v-293h-807q-65 0 -116.5 -5t-87.5 -24t-55 -56.5t-19 -102.5v-51h1036v-293h-1036v-549h-371zM1890 0v1374h371v-1374h-371z" />
<glyph unicode="&#xfb02;" horiz-adv-x="3244" d="M215 0v924q0 106 31.5 190t105.5 141.5t196 88t304 30.5h819v-293h-807q-65 0 -116.5 -5t-87.5 -24t-55 -56.5t-19 -102.5v-51h1036v-293h-1036v-549h-371zM1784 451v923h371v-786q0 -86 16 -140.5t52 -86.5t93.5 -44t141.5 -12h704v-305h-780q-162 0 -275.5 26.5 t-185.5 82t-104.5 140.5t-32.5 202z" />
</font>
</defs>
</svg>
